<?xml version="1.0" encoding="UTF-8" standalone="no"?>
<svg
   xmlns:dc="http://purl.org/dc/elements/1.1/"
   xmlns:cc="http://creativecommons.org/ns#"
   xmlns:rdf="http://www.w3.org/1999/02/22-rdf-syntax-ns#"
   xmlns:svg="http://www.w3.org/2000/svg"
   xmlns="http://www.w3.org/2000/svg"
   viewBox="0 0 490.66666 314.66666"
   height="314.66666"
   width="490.66666"
   xml:space="preserve"
   id="svg2"
   version="1.1"><metadata
     id="metadata8"><rdf:RDF><cc:Work
         rdf:about=""><dc:format>image/svg+xml</dc:format><dc:type
           rdf:resource="http://purl.org/dc/dcmitype/StillImage" /></cc:Work></rdf:RDF></metadata><defs
     id="defs6" /><g
     transform="matrix(1.3333333,0,0,-1.3333333,0,314.66667)"
     id="g10"><g
       transform="scale(0.1)"
       id="g12"><path
         id="path14"
         style="fill:rgb(218, 79, 111);fill-opacity:1;fill-rule:nonzero;stroke:none"
         d="m 410.855,1828.07 c 0.008,4.02 1.094,10.97 2.411,15.47 l 1.808,6.17 c 1.317,4.49 2.156,11.98 1.875,16.65 l -2.265,37.19 c -0.286,4.66 -1.231,10.54 -2.102,13.06 -0.867,2.52 -1.582,8.41 -1.582,13.09 v 14.24 c 0,4.67 2.254,10.85 5,13.7 2.75,2.88 5,8.72 5,13 0,4.27 2.684,10.4 5.965,13.6 3.277,3.21 8.863,5.84 12.41,5.84 3.551,0 9.41,-2.44 13.02,-5.41 l 1.035,-0.85 c 3.605,-2.98 9.297,-8.09 12.629,-11.37 l 3.289,-3.21 c 3.332,-3.28 7.949,-9.29 10.246,-13.36 l 26.976,-47.77 c 2.301,-4.08 5.887,-8.14 7.973,-9.04 2.09,-0.89 6.504,-1.34 9.816,-1 3.317,0.35 6.028,4.46 6.028,9.14 v 62.69 c 0,4.68 2.527,11.38 5.621,14.89 l 0.879,0.99 c 3.09,3.51 8.801,6.38 12.691,6.38 3.899,0 10.149,-2.28 13.891,-5.09 l 4.761,-3.57 c 3.747,-2.8 6.813,-8.92 6.813,-13.6 v -142.69 c 0,-4.68 -2.352,-11.51 -5.231,-15.18 -2.874,-3.67 -6.824,-6.67 -8.765,-6.67 -1.953,0 -7.109,0.75 -11.469,1.67 -4.348,0.92 -10.832,4.14 -14.402,7.17 l -11.602,9.83 c -3.57,3.03 -8.609,8.68 -11.195,12.58 l -36.129,54.33 c -2.59,3.9 -7.488,4.61 -10.898,1.59 -3.403,-3.03 -6.153,-9.33 -6.11,-14.01 l 0.266,-29.65 c 0.043,-4.68 1.027,-10.1 2.191,-12.05 1.16,-1.94 2.477,-6.72 2.914,-10.62 0.442,-3.9 -1.64,-10.04 -4.625,-13.64 l -1.226,-1.47 c -2.985,-3.61 -9.242,-6.86 -13.903,-7.22 l -4.297,-0.35 c -4.664,-0.36 -11.402,1.81 -14.976,4.82 l -8.25,6.96 c -3.574,3.01 -6.492,8.76 -6.481,12.77" /><path
         id="path16"
         style="fill:rgb(218, 79, 111);fill-opacity:1;fill-rule:nonzero;stroke:none"
         d="m 849.469,1891.35 c 0.293,-4.67 3.906,-8.88 8.027,-9.35 4.121,-0.48 8.899,1.4 10.625,4.16 1.723,2.78 2.008,7.57 0.629,10.66 -1.379,3.1 -6.328,5.72 -11,5.82 l -0.5,0.03 c -4.672,0.1 -8.262,-3.63 -7.969,-8.29 z m -79.047,-68.49 c -0.918,3.44 -0.324,9.84 1.316,14.21 l 50.094,133.38 c 1.641,4.37 4.152,10 5.578,12.48 1.422,2.48 2.402,6.3 2.176,8.48 -0.231,2.18 -2.484,7.18 -5.02,11.11 l -6.628,10.28 c -2.532,3.93 -2.915,10.06 -0.852,13.61 2.059,3.55 6.754,5.14 10.414,3.54 3.672,-1.61 10.492,-2.76 15.168,-2.56 l 3.008,0.12 c 4.672,0.2 10.84,3.08 13.699,6.4 2.867,3.32 8.113,6.13 11.672,6.25 3.547,0.11 8.234,-2.42 10.414,-5.63 2.176,-3.2 7,-8.15 10.723,-10.98 l 3.972,-3.03 c 3.723,-2.83 6.766,-7.97 6.766,-11.4 0,-3.44 -2.531,-7.94 -5.625,-10 -3.098,-2.07 -9.051,-2.04 -13.235,0.05 l -13.957,6.98 c -4.183,2.09 -8.828,2.21 -10.308,0.26 -1.496,-1.95 -2.996,-5.98 -3.336,-8.96 -0.344,-2.98 1.809,-6.07 4.789,-6.88 2.984,-0.8 7.734,-4.5 10.562,-8.23 l 15.965,-21.03 c 2.828,-3.73 6.442,-10.38 8.028,-14.78 l 3.394,-9.42 c 1.586,-4.4 4.039,-11.65 5.446,-16.1 l 10.73,-34.05 c 1.406,-4.46 4.352,-11.49 6.551,-15.62 l 1.172,-2.22 c 2.195,-4.13 4.347,-11.32 4.793,-15.98 l 0.054,-0.56 c 0.446,-4.66 -0.773,-11.96 -2.695,-16.22 l -4.664,-10.32 c -1.926,-4.27 -7.066,-7.86 -11.414,-7.97 -4.36,-0.11 -10.449,1.95 -13.547,4.59 -3.098,2.63 -8.352,7.48 -11.684,10.76 l -0.324,0.31 c -3.336,3.28 -9.883,5.78 -14.555,5.56 l -21.394,-1.02 c -4.676,-0.22 -10.699,-3.54 -13.391,-7.36 l -8.965,-12.76 c -2.691,-3.81 -8.144,-8.97 -12.113,-11.44 l -0.976,-0.6 c -3.969,-2.48 -11.032,-4.1 -15.68,-3.62 l -3.086,0.33 c -4.648,0.48 -11.16,3.59 -14.473,6.9 l -0.882,0.88 c -3.313,3.31 -6.77,8.83 -7.68,12.26" /><path
         id="path18"
         style="fill:rgb(218, 79, 111);fill-opacity:1;fill-rule:nonzero;stroke:none"
         d="m 1147.86,1811.82 c -3.5,3.09 -6.37,9.46 -6.37,14.14 v 10.08 c 0,4.67 1.13,11.22 2.5,14.53 1.38,3.32 2.5,9.87 2.5,14.55 v 57.99 c 0,4.67 -2.64,11.28 -5.86,14.66 l -1.43,1.5 c -3.22,3.37 -9.69,6.07 -14.37,5.98 l -6.74,-0.13 c -4.68,-0.09 -11.31,2.44 -14.74,5.62 l -4.12,3.83 c -3.42,3.18 -6.23,9.62 -6.23,14.3 v 1.03 c 0,4.68 3.45,10.17 7.66,12.2 l 4.6,2.21 c 4.21,2.03 11.49,3.69 16.17,3.69 h 73.39 c 4.68,0 9.73,0.44 11.22,0.98 1.49,0.53 6.54,0.88 11.21,0.75 l 10.92,-0.27 c 4.68,-0.11 10.3,-2.65 12.48,-5.63 2.2,-2.98 3.99,-9.25 3.99,-13.93 v -3.94 c 0,-4.68 -3.13,-10.71 -6.96,-13.39 l -3.22,-2.27 c -3.83,-2.68 -10.78,-4.88 -15.46,-4.88 h -8.41 c -4.68,0 -10.87,-3.02 -13.75,-6.7 l -5.87,-7.49 c -2.88,-3.68 -5.24,-10.53 -5.24,-15.21 v -93.4 c 0,-4.68 -2.04,-11.69 -4.53,-15.59 -2.49,-3.89 -8,-7.08 -12.24,-7.08 -4.24,0 -10.58,2.54 -14.08,5.64 l -7.02,6.23" /><path
         id="path20"
         style="fill:rgb(218, 79, 111);fill-opacity:1;fill-rule:nonzero;stroke:none"
         d="m 1557.13,1962.82 c -0.14,-4.67 -1.64,-12.06 -3.33,-16.43 l -13.64,-35.18 c -1.69,-4.36 -3.92,-11.66 -4.95,-16.22 l -6.25,-27.59 c -1.03,-4.56 -3.75,-11.63 -6.03,-15.71 l -3.35,-5.99 c -2.29,-4.08 -7.44,-8.92 -11.45,-10.75 -4.01,-1.84 -7.67,-6.43 -8.13,-10.22 -0.45,-3.77 -4.52,-7.89 -9.02,-9.14 l -6.12,-1.7 c -4.5,-1.25 -10.26,0.95 -12.79,4.88 l -20.8,32.35 c -2.53,3.94 -6.63,10.4 -9.12,14.37 l -4.68,7.47 c -2.48,3.97 -4.71,11.02 -4.95,15.7 l -0.42,8.2 c -0.23,4.68 -1.95,12.02 -3.8,16.3 l -4.38,10.12 c -1.85,4.29 -4.28,11.52 -5.38,16.07 l -4.03,16.5 c -1.1,4.54 -1.82,11.47 -1.6,15.41 0.23,3.94 3.23,8.34 6.67,9.79 3.44,1.46 9.94,1.61 14.44,0.34 l 2.38,-0.67 c 4.5,-1.28 10.28,-4.79 12.84,-7.82 2.57,-3.02 5.82,-9.16 7.23,-13.61 l 0.6,-1.88 c 1.41,-4.45 2.05,-10.62 1.42,-13.7 -0.63,-3.07 0.18,-9.19 1.8,-13.57 l 2.62,-7.12 c 1.62,-4.39 4.34,-10.42 6.05,-13.41 1.69,-2.99 4.41,-9.01 6.03,-13.39 1.61,-4.36 4.79,-8.22 7.06,-8.55 2.27,-0.33 6.21,2.47 8.75,6.25 2.54,3.78 5.15,10.65 5.79,15.29 l 1.34,9.7 c 0.64,4.64 2.33,12.07 3.76,16.52 l 11.19,34.88 c 1.43,4.46 5.85,10.11 9.83,12.57 l 0.69,0.43 c 3.98,2.46 9.2,4.47 11.6,4.47 2.41,0 7.5,-2.21 11.31,-4.91 l 4.25,-3.01 c 3.82,-2.7 6.82,-8.74 6.68,-13.4 l -0.11,-3.64" /><path
         id="path22"
         style="fill:rgb(218, 79, 111);fill-opacity:1;fill-rule:nonzero;stroke:none"
         d="m 1737.74,1825.78 c 0,3.44 0.47,9.16 1.05,12.7 0.57,3.56 1.04,10.3 1.04,14.98 v 62.58 c 0,4.67 -1.03,9.86 -2.29,11.52 -1.27,1.66 -2.3,5.96 -2.3,9.58 0,3.61 2.62,9.35 5.81,12.77 l 0.64,0.7 c 3.2,3.42 6.97,9.86 8.38,14.32 l 2.77,8.71 c 1.42,4.47 6.4,8.11 11.08,8.11 h 20.91 c 4.68,0 12.32,0.35 16.98,0.78 l 5.56,0.52 c 4.66,0.43 11.65,1.4 15.55,2.18 3.9,0.75 10.91,1.39 15.59,1.39 h 6.73 c 4.68,0 11.19,-2.74 14.45,-6.09 l 5.58,-5.73 c 3.27,-3.35 5.94,-9.92 5.94,-14.6 v -6.27 c 0,-4.68 -3.83,-8.51 -8.5,-8.51 h -63.36 c -4.68,0 -10.85,-2.35 -13.72,-5.23 -2.87,-2.89 -5.21,-7.04 -5.21,-9.22 0,-2.19 2.06,-6.41 4.58,-9.38 2.53,-2.97 8.42,-5.45 13.1,-5.5 l 42.14,-0.61 c 4.68,-0.06 11.64,-2.34 15.44,-5.04 l 1.98,-1.41 c 3.8,-2.7 6.79,-8.2 6.64,-12.21 -0.17,-4.01 -2.8,-10 -5.84,-13.34 -3.05,-3.31 -9.37,-6.07 -14.05,-6.12 l -42.15,-0.42 c -4.68,-0.05 -10.94,-3.05 -13.92,-6.65 l -0.02,-0.02 c -2.97,-3.61 -5.4,-8.55 -5.4,-10.98 0,-2.43 2.48,-7.33 5.52,-10.88 l 0.63,-0.74 c 3.04,-3.56 8.62,-7.01 12.39,-7.66 3.78,-0.66 9.69,-1.19 13.13,-1.17 3.44,0.02 8.31,0.59 10.83,1.29 2.52,0.69 8.41,1.33 13.09,1.43 l 14.23,0.3 c 4.68,0.09 9.63,-1.05 11.01,-2.54 1.38,-1.49 2.18,-4.32 1.79,-6.28 -0.39,-1.98 -2.45,-6.95 -4.58,-11.05 -2.13,-4.1 -7.31,-9.15 -11.5,-11.22 l -14.33,-7.06 c -4.19,-2.07 -11.46,-3.76 -16.14,-3.76 h -52.57 c -4.68,0 -11.25,2.67 -14.61,5.93 l -7.96,7.73 c -3.36,3.25 -6.11,8.73 -6.11,12.17" /><path
         id="path24"
         style="fill:rgb(218, 79, 111);fill-opacity:1;fill-rule:nonzero;stroke:none"
         d="m 2110.45,1942.06 c -2.73,-3.22 -4.96,-9.68 -4.96,-14.36 v -1.74 c 0,-4.68 2.8,-11.12 6.22,-14.31 l 2.07,-1.92 c 3.42,-3.19 10.05,-5.79 14.73,-5.79 h 5.07 c 4.68,0 11.73,2.06 15.68,4.57 0,0 19.91,12.69 19.91,21.44 0,9.58 -3.19,17.97 -20.69,17.97 h -24.55 c -4.68,0 -10.75,-2.64 -13.48,-5.86 z m -35.03,-114.4 c -0.23,4.47 0.7,9.81 2.08,11.87 1.38,2.06 2.5,6.66 2.5,10.2 0,3.56 -2.43,9.42 -5.41,13.04 l -2.93,3.53 c -2.98,3.61 -5.41,10.39 -5.41,15.07 v 40.49 c 0,4.67 1.04,10.66 2.29,13.3 1.26,2.63 2.3,7.51 2.3,10.82 0,3.34 1.83,9.41 4.06,13.52 l 4.79,8.81 c 2.23,4.11 7.81,7.47 12.4,7.47 4.58,0 11.61,1.78 15.62,3.95 4.01,2.19 11.12,3.83 15.79,3.66 l 28.84,-1.05 c 4.67,-0.17 12.06,-1.7 16.42,-3.41 0,0 14.41,-5.65 21.66,-9.82 16.3,-9.39 21.67,-21.25 21.67,-39.94 0,-22.97 -10.3,-31.58 -23.34,-40.32 -2.48,-1.66 -2.48,-1.66 -2.48,-1.66 0.35,-3.16 1.49,-9.48 2.54,-14.04 l 4.49,-19.58 c 1.05,-4.55 0.57,-9.36 -1.07,-10.67 -1.65,-1.3 -2.82,-3.35 -2.61,-4.53 0.2,-1.19 1.78,-3.94 3.49,-6.14 1.7,-2.17 3.04,-7.78 2.97,-12.46 l -0.11,-8.4 c -0.07,-4.68 -3.96,-8.67 -8.63,-8.88 l -2.17,-0.09 c -4.68,-0.2 -10.94,2.07 -13.92,5.05 -2.97,2.97 -5.69,8.41 -6.04,12.08 -0.34,3.67 0.97,7.98 2.92,9.58 1.95,1.61 3.07,3.86 2.5,5 -0.57,1.16 -3.67,3.56 -6.88,5.33 -3.2,1.79 -7.51,6.69 -9.56,10.89 l -5.73,11.72 c -2.05,4.2 -7.52,8.19 -12.14,8.88 l -7.49,1.11 c -4.62,0.69 -11.88,0.02 -16.12,-1.47 -4.24,-1.49 -9.96,-4.68 -12.71,-7.09 -2.75,-2.39 -5.09,-7.84 -5.21,-12.07 -0.11,-4.24 1.61,-10.11 3.81,-13.06 2.21,-2.94 3.71,-8.18 3.35,-11.66 -0.37,-3.49 -1.8,-8.86 -3.18,-11.96 -1.39,-3.09 -3.14,-5.86 -6.69,-5.98 -3.55,-0.12 -10.43,2.39 -12.49,5.36 -2.06,2.98 -3.94,9.07 -4.17,13.55" /><path
         id="path26"
         style="fill:rgb(218, 79, 111);fill-opacity:1;fill-rule:nonzero;stroke:none"
         d="m 2418.01,1815.83 c -2.62,3.87 -4.77,9.94 -4.77,13.49 0,3.56 0.75,7.12 1.66,7.91 0.92,0.82 1.67,4.75 1.67,8.75 0,4.02 -0.75,9.83 -1.67,12.93 -0.91,3.09 -1.66,9.45 -1.66,14.13 v 51.32 c 0,4.68 0.69,12.28 1.52,16.88 l 0.82,4.51 c 0.83,4.6 4.62,10.62 8.4,13.35 l 13.3,9.62 c 3.78,2.74 8.76,3.86 11.04,2.48 2.3,-1.38 5.2,-4.09 6.45,-6.03 1.26,-1.96 2.29,-6.83 2.29,-10.85 0,-4 -1.03,-10.09 -2.29,-13.53 -1.25,-3.45 0.39,-7.55 3.67,-9.13 3.27,-1.58 7.57,-1.82 9.54,-0.54 1.97,1.28 6.41,4.93 9.86,8.08 l 30.48,27.93 c 3.45,3.15 10.1,5.8 14.78,5.87 l 10.9,0.15 c 4.68,0.07 10.17,-3.31 12.19,-7.54 l 0.36,-0.73 c 2.02,-4.22 0.99,-10.39 -2.29,-13.71 l -36.81,-37.19 c -3.28,-3.33 -3.76,-9.18 -1.06,-13 l 52.98,-74.78 c 2.7,-3.82 3.02,-10.27 0.72,-14.34 l -2.56,-4.5 c -2.31,-4.08 -6.72,-7.41 -9.82,-7.41 -3.09,0 -9.05,1.7 -13.24,3.78 l -4.79,2.38 c -4.19,2.07 -9.75,6.96 -12.36,10.83 l -29.27,43.74 c -2.61,3.87 -8.54,7.48 -13.19,8 l -1.69,0.19 c -4.64,0.52 -11.2,-0.62 -14.57,-2.53 -3.37,-1.91 -6.12,-7.3 -6.12,-11.98 v -31.32 c 0,-4.68 -2.67,-11.25 -5.92,-14.61 l -2.3,-2.38 c -3.25,-3.35 -8.08,-6.1 -10.71,-6.1 -2.63,0 -6.94,3.16 -9.56,7.04 l -5.98,8.84" /><path
         id="path28"
         style="fill:rgb(218, 79, 111);fill-opacity:1;fill-rule:nonzero;stroke:none"
         d="m 2762.97,1815.46 c -2.67,3.85 -4.86,10.82 -4.88,15.5 l -0.01,3.92 c -0.02,4.68 0.38,9.43 0.88,10.54 0.51,1.11 0.91,4.98 0.9,8.6 -0.02,3.61 -0.46,8.38 -0.97,10.62 -0.53,2.24 -0.98,7.89 -1,12.57 l -0.12,29.24 c -0.02,4.67 -0.04,11.5 -0.04,15.16 0,3.67 0.85,10.4 1.89,14.96 l 2.67,11.76 c 1.03,4.56 2.45,12.08 3.13,16.7 l 0.41,2.76 c 0.68,4.62 5.08,8.48 9.76,8.56 l 9.97,0.18 c 4.67,0.08 11.11,-1.15 14.28,-2.73 3.19,-1.57 7.76,-2.83 10.16,-2.79 2.41,0.04 7.96,1.43 12.33,3.08 l 0.65,0.25 c 4.37,1.64 10.55,3.05 13.72,3.1 3.16,0.05 8.83,-2.17 12.6,-4.95 l 1.67,-1.24 c 3.77,-2.77 10.66,-5.31 15.33,-5.64 l 0.84,-0.06 c 4.67,-0.34 10.73,-2.07 13.49,-3.88 2.75,-1.81 4.86,-4.69 4.68,-6.4 -0.17,-1.72 -1.43,-4.65 -2.81,-6.49 -1.38,-1.85 -4.12,-3.36 -6.09,-3.36 -1.98,0 -7.43,0 -12.1,0 h -37.99 c -4.68,0 -11.81,-1.94 -15.83,-4.31 l -6.29,-3.72 c -4.02,-2.37 -7.39,-6.91 -7.48,-10.09 -0.09,-3.19 2.49,-8.55 5.73,-11.92 l 1.97,-2.07 c 3.25,-3.37 9.72,-6.13 14.4,-6.13 h 39.86 c 4.68,0 11.25,-2.47 14.6,-5.49 3.35,-3.02 6.03,-6.83 5.95,-8.46 -0.08,-1.63 -2.33,-6.02 -4.99,-9.75 -2.68,-3.73 -8.68,-6.79 -13.36,-6.79 h -43.31 c -4.68,0 -10.89,-2.99 -13.81,-6.65 l -1.48,-1.88 c -2.92,-3.66 -5.31,-9.88 -5.31,-13.84 0,-3.95 2.62,-9.97 5.82,-13.37 l 1.7,-1.81 c 3.21,-3.41 8.42,-5.84 11.6,-5.41 3.19,0.43 9.61,0.78 14.29,0.78 h 43.3 c 4.68,0 10.99,-2.78 14.02,-6.18 3.02,-3.41 5.5,-7.88 5.5,-9.94 0,-2.06 -2.79,-6.37 -6.21,-9.56 l -3.28,-3.07 c -3.42,-3.19 -9.51,-5.81 -13.55,-5.81 -4.05,0 -8.97,0.64 -10.94,1.41 -1.97,0.77 -6.27,1.47 -9.53,1.56 -3.26,0.09 -9.77,0.15 -14.45,0.15 h -55.17 c -4.68,0 -10.69,3.15 -13.35,7 l -3.75,5.39" /><path
         id="path30"
         style="fill:rgb(218, 79, 111);fill-opacity:1;fill-rule:nonzero;stroke:none"
         d="m 3116.98,1822.25 c 0,3.77 1.69,8.46 3.75,10.41 2.06,1.94 6.77,7.63 6.77,12.31 v 2.17 c 0,4.68 -4.71,10.39 -6.77,13.03 -2.06,2.63 -3.75,8.62 -3.75,13.3 v 47.98 c 0,4.67 2.38,10.91 5.29,13.83 2.9,2.93 8.12,5.74 11.61,6.24 3.48,0.5 9.21,-1.63 12.7,-4.72 l 3.27,-2.88 c 3.5,-3.1 6.35,-9.47 6.32,-14.15 l -0.21,-36.73 c -0.03,-4.68 -1.73,-11.51 -3.79,-15.18 -2.05,-3.66 -6.9,-8.48 -10.76,-10.72 -3.87,-2.24 -8.67,-5.98 -8.28,-8.12 0.37,-2.16 1.32,-5.84 5,-8.75 l 7.36,-2.74 c 3.67,-2.91 6.6,-9.11 6.52,-13.79 l -0.02,-1.22 c -0.08,-4.68 -2.61,-11.43 -5.62,-15.01 l -0.89,-1.05 c -3.02,-3.58 -8.66,-6.51 -12.57,-6.51 -3.89,0 -8.98,3.32 -11.31,7.37 l -0.39,0.68 c -2.32,4.05 -4.23,10.47 -4.23,14.25" /><path
         id="path32"
         style="fill:rgb(218, 79, 111);fill-opacity:1;fill-rule:nonzero;stroke:none"
         d="m 409.465,1205.15 c -2.352,4.04 -4.149,11.18 -3.992,15.85 l 0.269,8.04 c 0.156,4.67 -0.648,12.07 -1.793,16.43 -1.14,4.36 -2.074,11.77 -2.074,16.44 v 4.7 c 0,4.68 0.531,12.3 1.176,16.93 l 3.492,24.92 c 0.645,4.63 1.176,12.24 1.176,16.92 v 138.27 c 0,4.68 -0.43,12.31 -0.949,16.96 l -3.942,34.86 c -0.523,4.65 -0.953,12.27 -0.953,16.95 v 211.17 c 0,4.67 2.871,11.03 6.383,14.12 l 8.094,7.13 c 3.511,3.09 10.21,5.62 14.886,5.62 h 64.801 c 4.68,0 12.063,-1.42 16.402,-3.16 l 30.161,-12.06 c 4.339,-1.73 7.894,-6.98 7.894,-11.65 v -525.92 c 0,-4.68 -2.777,-11.15 -6.172,-14.36 l -4.386,-4.17 c -3.395,-3.21 -9.793,-7.1 -14.211,-8.63 l -19.821,-6.85 c -4.418,-1.53 -11.863,-2.78 -16.543,-2.78 h -57.297 c -4.679,0 -10.429,3.31 -12.781,7.35 l -9.82,16.92" /><path
         id="path34"
         style="fill:rgb(218, 79, 111);fill-opacity:1;fill-rule:nonzero;stroke:none"
         d="m 744.75,1202.37 c -2.625,3.87 -4.637,10.86 -4.469,15.53 l 5.715,157.81 c 0.172,4.67 -0.383,12.26 -1.226,16.87 l -11.594,63.26 c -0.848,4.61 -1.535,12.2 -1.535,16.87 v 270.88 c 0,4.67 2.402,11.48 5.336,15.12 l 3.289,4.08 c 2.933,3.65 9.164,6.64 13.839,6.67 l 84.864,0.53 c 4.679,0.03 11.945,-1.63 16.144,-3.69 l 14.102,-6.9 c 4.199,-2.06 9.601,-7.02 12.012,-11.03 l 211.333,-352 c 2.41,-4.01 7.57,-5.68 11.46,-3.69 3.9,1.99 7.02,7.44 6.93,12.12 l -6.01,330.48 c -0.09,4.68 1.29,12.02 3.06,16.32 1.78,4.3 6.97,8.61 11.55,9.56 l 18.98,4.01 c 4.58,0.95 12.15,1.69 16.82,1.63 l 27.37,-0.39 c 4.68,-0.06 12.28,0.55 16.87,1.37 l 0.77,0.14 c 4.6,0.82 11.44,-0.19 15.19,-2.26 3.76,-2.05 6.9,-7.57 6.99,-12.25 l 6,-309.86 c 0.09,-4.68 -0.88,-12.19 -2.17,-16.69 l -0.33,-1.14 c -1.28,-4.49 -2.33,-11.55 -2.33,-15.67 0,-4.12 1.12,-10.69 2.5,-14.58 1.37,-3.91 2.36,-10.92 2.2,-15.59 l -5.73,-163.84 c -0.17,-4.67 -2.69,-11.49 -5.62,-15.13 l -2.39,-2.99 c -2.93,-3.64 -7.86,-7.18 -10.96,-7.85 -3.11,-0.68 -8.69,-3.56 -12.4,-6.4 l -5.84,-4.49 c -3.71,-2.84 -10.57,-5.18 -15.25,-5.18 h -18.61 c -4.68,0 -10.48,2.77 -12.88,6.15 -2.41,3.38 -8.14,6.83 -12.74,7.69 l -0.16,0.02 c -4.59,0.86 -11.39,3.89 -15.09,6.74 l -19.03,14.63 c -3.7,2.85 -8.96,8.3 -11.67,12.11 l -11.3,15.87 c -2.71,3.81 -6.89,10.21 -9.28,14.24 l -176.39,296.9 c -2.39,4.03 -5.769,9.64 -7.519,12.48 -1.746,2.84 -5.082,4.55 -7.41,3.81 -2.329,-0.75 -4.239,-5.19 -4.239,-9.87 v -343.73 c 0,-4.67 -2.257,-11.6 -5.015,-15.37 l -5.778,-7.93 c -2.757,-3.77 -8.839,-6.86 -13.519,-6.86 h -71.738 c -4.676,0 -10.657,3.16 -13.282,7.03 l -9.82,14.46" /><path
         id="path36"
         style="fill:rgb(218, 79, 111);fill-opacity:1;fill-rule:nonzero;stroke:none"
         d="m 1851.98,1190.23 c -3.28,3.33 -6.5,9.85 -7.15,14.48 l -3.26,23.16 c -0.64,4.63 -4.01,11 -7.47,14.14 l -4.03,3.66 c -23.04,-29.75 -56.14,-49.84 -84.35,-62.22 -4.05,-1.78 -10.92,0.24 -15.02,-1.22 -5.66,-2.03 -8.59,-7.42 -14.32,-8.87 -4.05,-1.03 -8.11,-1.91 -12.18,-2.68 -7.3,-1.36 -8.09,2.52 -15.4,1.98 -5.12,-0.38 -16.76,-5.38 -21.86,-5.38 -11.12,0 -21.95,0.52 -32.49,1.54 -4.86,0.47 -9.95,5.22 -14.68,5.91 -3.36,0.48 -6.59,0.71 -10.63,0 -6.38,-1.13 -11.68,-0.13 -17.82,1.38 -87.93,21.66 -162.69,101.15 -191.97,198.83 -0.91,3.04 -0.43,17.86 -1.25,20.93 -3.22,12.04 -7.1,12.55 -8.88,25.02 -2.03,14.2 -3.09,28.63 -3.09,43.19 0,169.61 107.66,311.79 284.47,311.79 104.18,0 215.15,-61.47 245.01,-165.83 0.78,-2.74 0.08,-5.74 0.08,-5.74 -1.06,-4.55 -5.41,-9.86 -9.67,-11.77 l -42.22,-18.92 c -4.26,-1.93 -10.99,-1.47 -14.94,1.02 l -1.62,1.01 c -3.96,2.5 -10.87,5.61 -15.36,6.93 l -23.81,4.77 c -4.57,1.03 -11.04,4.55 -14.38,7.82 0,0 -66.29,64.92 -118.09,64.92 -112.8,0 -163.86,-96 -163.86,-196 0,-95.2 48.73,-191.21 161.53,-191.21 70.29,0 121.91,32.66 138.49,92.33 1.18,4.26 3.75,26.51 -6.88,26.51 -10.61,0 -56.61,0 -56.61,0 -4.68,0 -11.43,2.47 -15,5.49 l -23.18,19.54 c -3.57,3.02 -7.53,9.17 -8.8,13.67 l -4.45,15.82 c -1.27,4.5 -2.22,12.01 -2.11,16.69 l 0.15,6.11 c 0.11,4.68 0.7,14.46 4.06,17.72 l 0.3,0.3 c 3.35,3.26 12.17,2.64 16.84,2.64 h 198.29 c 4.67,0 10.96,-2.93 13.97,-6.51 l 3.46,-4.13 c 3,-3.58 5.47,-10.34 5.47,-15.02 v -237.99 c 0,-4.67 -1.37,-12.08 -3.04,-16.44 l -2.05,-5.37 c -1.67,-4.37 -5.03,-11.21 -7.46,-15.21 l -0.55,-0.88 c -2.43,-3.99 -8.25,-7.26 -12.93,-7.26 h -4.3 c -4.67,0 -11.92,1.73 -16.09,3.85 l -0.41,0.2 c -4.17,2.12 -10.11,2.73 -13.19,1.36 -3.09,-1.38 -8.61,-2.5 -12.27,-2.5 -3.65,0 -9.34,2.72 -12.62,6.05 l -0.38,0.39" /><path
         id="path38"
         style="fill:rgb(218, 79, 111);fill-opacity:1;fill-rule:nonzero;stroke:none"
         d="m 2138.58,1208.48 c -3.35,3.26 -6.21,9.76 -6.35,14.43 l -0.77,23.63 c -0.14,4.67 -0.32,12.33 -0.39,17 l -6.09,444.87 c -0.07,4.68 0.59,10.55 1.45,13.04 0.86,2.49 1.56,7.27 1.56,10.62 0,3.35 -0.11,8.91 -0.25,12.34 -0.13,3.44 2.44,7.89 5.7,9.87 3.27,1.99 9.77,3.63 14.45,3.65 h 0.79 c 4.68,0.02 9.36,-0.81 10.38,-1.84 1.04,-1.03 4.98,-1.86 8.76,-1.85 3.78,0.02 9.06,0.88 11.72,1.91 2.67,1.05 8.67,1.91 13.35,1.92 l 304.5,1.03 18.45,1.58 22.6,0.07 c 4.29,-1.48 9.36,-4.81 10.88,-8.9 1.51,-4.1 2.75,-11.26 2.75,-15.94 v -47.05 c 0,-4.68 -0.47,-10.27 -1.03,-12.41 -0.57,-2.15 -0.57,-6.09 0,-8.75 0.56,-2.67 -2.16,-6.95 -6.08,-9.52 l -10.66,-7.02 c -3.92,-2.57 -10.94,-4.68 -15.62,-4.68 h -251.42 c -4.68,0 -10.38,-1.09 -12.65,-2.44 -2.29,-1.34 -4.15,-6.27 -4.15,-10.94 v -69.87 c 0,-4.68 2.01,-11.75 4.47,-15.74 l 0.91,-1.47 c 2.46,-3.98 8.3,-7.23 12.98,-7.23 h 234.55 c 4.68,0 11.27,-2.65 14.66,-5.88 l 3.08,-2.95 c 3.39,-3.23 7.19,-9.56 8.46,-14.06 l 3.75,-13.3 c 1.27,-4.5 0.9,-11.74 -0.82,-16.1 l -1.42,-3.56 c -1.71,-4.35 -3.08,-10.72 -3.03,-14.15 0.04,-3.44 0.65,-8.93 1.36,-12.19 0.72,-3.26 -1.8,-7.48 -5.58,-9.37 -3.78,-1.9 -10.7,-3.47 -15.38,-3.5 l -13.7,-0.09 c -4.68,-0.03 -12.3,0.47 -16.94,1.12 l -20.56,2.86 c -4.63,0.64 -12.24,1.37 -16.92,1.63 l -6.13,0.33 c -4.68,0.26 -10.19,1.3 -12.25,2.33 -2.06,1.04 -7.26,0.89 -11.56,-0.31 -4.3,-1.2 -9.5,-4.01 -11.56,-6.25 -2.06,-2.24 -6.79,-6.39 -10.51,-9.23 l -5.86,-4.47 c -3.72,-2.84 -10.58,-5.17 -15.26,-5.17 h -101.91 c -4.67,0 -8.5,-3.82 -8.5,-8.5 v -123 c 0,-4.68 3.83,-8.51 8.5,-8.51 h 45.67 c 4.67,0 10.75,0 13.49,0 2.76,0 7.37,-3 10.26,-6.68 l 3.25,-4.13 c 2.89,-3.68 9.08,-6.69 13.76,-6.69 h 1.1 c 4.68,0 12.96,5.18 14.37,7.21 1.4,2.03 3.76,0.18 7.87,1.04 3.32,0.7 5.44,1.47 8.7,1.47 3.26,0 8.22,-1.38 7.7,-5.83 -0.51,-4.46 3.18,-6.95 3.18,-6.95 1.27,-4.5 6.14,-8.19 10.82,-8.19 h 21.12 c 4.68,0 7.38,1.89 9.2,2.59 2.03,0.78 2.5,2.49 4.85,5.97 2.34,3.49 2.76,5.23 6.87,5.42 4.11,0.21 11.55,-0.55 13.44,-4.83 l 5.09,-3.42 c 1.88,-4.28 6.13,-5.98 10.81,-6.22 l 6.75,-0.36 c 4.68,-0.24 12.44,0.12 15.89,3.28 l 1.82,1.66 c 3.46,3.15 9.7,0.02 12.45,0.53 2.75,0.52 6.25,-0.15 8.91,-0.78 2.65,-0.62 4.53,-1.72 8.59,-2.65 3.76,-0.87 8.78,-0.68 13.44,-0.32 l 15.04,-0.46 c 4.65,0.37 10.87,-2.15 13.79,-5.59 2.92,-3.44 3.78,-9.77 1.93,-14.05 l -12.7,-29.4 c -1.85,-4.29 -5.77,-10.79 -8.69,-14.44 l -1.87,-2.35 c -2.92,-3.65 -8.66,-6.42 -12.76,-6.15 -4.08,0.27 -9.85,-0.82 -12.81,-2.4 -2.95,-1.57 -9.2,-2.87 -13.88,-2.87 h -307.98 c -4.68,0 -12.12,1.25 -16.55,2.77 l -1.42,0.49 c -4.43,1.52 -11.85,3.14 -16.51,3.57 l -3.06,0.29 c -4.66,0.43 -11.2,3.46 -14.55,6.73 l -14.09,13.75" /><path
         id="path40"
         style="fill:rgb(218, 79, 111);fill-opacity:1;fill-rule:nonzero;stroke:none"
         d="m 421.148,947.488 c 1.032,4.563 1.801,12.121 1.707,16.801 l -1.437,74.661 c -0.094,4.67 -1.832,11.95 -3.863,16.16 l -3.282,6.79 c -2.031,4.21 -4.199,11.4 -4.82,15.98 -0.613,4.58 1.055,11.48 3.707,15.32 l 5.348,7.76 c 2.648,3.84 8.41,8.33 12.793,9.96 l 10.73,3.99 c 4.379,1.62 11.531,1.56 15.891,-0.13 l 9.484,-3.73 c 4.356,-1.69 9.153,-6.71 10.66,-11.14 l 33.821,-99.43 c 1.508,-4.429 2.843,-8.05 2.972,-8.05 0.125,0 1.407,3.64 2.84,8.1 l 20.875,64.86 c 1.438,4.45 1.973,11.87 1.196,16.48 l -0.438,2.61 c -0.777,4.62 -0.477,12.04 0.668,16.52 1.148,4.47 5.625,9.57 9.957,11.34 l 2.594,1.06 c 4.328,1.78 11.508,2.04 15.957,0.59 l 10.492,-3.4 c 4.445,-1.45 10.402,-5.68 13.23,-9.4 l 6.891,-9.05 c 2.832,-3.72 5.149,-10.6 5.149,-15.27 V 948.469 c 0,-4.68 -3.313,-10.43 -7.36,-12.778 l -0.383,-0.211 c -4.047,-2.351 -10.265,-4.269 -13.824,-4.269 -3.547,0 -7.933,1.969 -9.738,4.379 -1.809,2.398 -3.281,8.199 -3.281,12.879 v 84.651 c 0,4.67 -1.176,9.32 -2.614,10.33 -1.441,1 -3.867,-1.79 -5.394,-6.21 l -18.563,-53.67 c -1.527,-4.422 -3.156,-10.25 -3.625,-12.961 -0.468,-2.718 -2.101,-8.55 -3.629,-12.968 l -4.632,-13.391 c -1.532,-4.43 -6.61,-8.039 -11.286,-8.039 h -13.957 c -4.675,0 -9.761,3.609 -11.304,8.027 l -6.539,18.711 c -1.543,4.41 -3.09,11.031 -3.438,14.711 -0.348,3.668 -1.898,10.289 -3.437,14.699 l -13.887,39.741 c -1.539,4.41 -4.305,7.15 -6.129,6.06 -1.832,-1.08 -3.328,-5.79 -3.328,-10.46 v -52.161 c 0,-4.68 0.262,-12.328 0.578,-17 l 0.918,-13.43 c 0.316,-4.668 -2.73,-10.41 -6.773,-12.757 l -6.125,-3.551 c -4.043,-2.34 -10.473,-2.051 -14.293,0.64 l -6.122,4.348 c -3.82,2.691 -6.093,8.641 -5.066,13.199 l 0.109,0.5" /><path
         id="path42"
         style="fill:rgb(218, 79, 111);fill-opacity:1;fill-rule:nonzero;stroke:none"
         d="m 825.312,1149.95 c 2.969,3.75 10.782,9.06 15.938,10 5.156,0.94 11.719,1.56 16.406,0 4.688,-1.56 8.645,-7.59 10.156,-10.62 1.512,-3.04 1.141,-11.54 -0.468,-15.16 -1.614,-3.62 -6.094,-6.41 -11.27,-7.38 -4.195,-0.79 -13.105,2.38 -16.699,4.41 -3.594,2.03 -10.781,7.19 -13.125,9.06 -2.344,1.88 -3.906,5.94 -0.938,9.69 z m -2.238,-105.62 c -3.039,0.01 -4.676,-2.19 -6.133,-6.63 l -8.05,-24.66 c -1.453,-4.46 0.656,-10.03 4.683,-12.42 l 3.688,-2.171 c 4.027,-2.39 10.543,-2.258 14.476,0.27 l 3.196,2.051 c 3.933,2.53 6.113,8.28 4.836,12.78 l -4.348,20.77 c -1.274,4.5 -9.301,10 -12.348,10.01 z m -36.98,103.28 c 0.808,3.99 4.57,8.26 8.906,10 4.336,1.74 16.094,0.47 16.094,0.47 4.676,0 6.25,-5.47 9.218,-8.44 2.317,-2.32 -0.136,-10.13 -1.25,-14.38 -1.113,-4.24 -5.988,-5.97 -9.687,-7.03 -3.699,-1.05 -9.594,-1.04 -13.594,1.72 -4.531,3.13 -7.219,4.72 -8.281,8.13 -1.062,3.4 -2.219,5.53 -1.406,9.53 z m 16.886,-47.6 c 1.661,4.37 6.844,7.95 11.524,7.95 h 20.867 c 4.68,0 9.844,-3.59 11.484,-7.97 l 25.286,-67.61 c 0,0 10.343,-29 11.566,-36.13 1.219,-7.141 13.348,-30.5 13.348,-30.5 1.636,-4.379 2.609,-11.781 2.156,-16.43 l -0.051,-0.48 c -0.453,-4.66 -3.445,-10.719 -6.66,-13.469 -3.203,-2.75 -11.738,-5.769 -15.062,-5.769 -3.321,0 -4.258,2.929 -5.973,5.57 -1.715,2.629 -4.84,8.207 -6.934,12.387 l -2.469,4.921 c -2.097,4.18 -5.578,8.399 -7.726,9.372 -2.152,0.968 -7.742,1.769 -12.422,1.769 h -29.656 c -4.68,0 -11.668,-1.492 -15.528,-3.32 -3.863,-1.832 -8.972,-6.621 -11.355,-10.641 l -1.406,-2.379 c -2.383,-4.031 -6.031,-9.191 -8.11,-11.492 -2.082,-2.277 -6.777,-4.16 -10.445,-4.16 -3.668,0 -10.082,1.723 -14.258,3.832 l -1.332,0.668 c -4.176,2.109 -6.234,7.41 -4.574,11.781 l 57.73,152.1" /><path
         id="path44"
         style="fill:rgb(218, 79, 111);fill-opacity:1;fill-rule:nonzero;stroke:none"
         d="m 1022.74,946.422 c 1.47,3.547 2.12,9.828 1.43,13.949 -0.69,4.117 -2.87,10.969 -4.85,15.207 l -1.55,3.344 c -1.98,4.226 -3.45,11.527 -3.26,16.199 l 0.38,9.619 c 0.19,4.66 0.09,12.31 -0.22,16.98 l -2.44,36.82 c -0.31,4.67 0.71,12.1 2.27,16.51 l 4.34,12.3 c 1.56,4.41 5.65,10.61 9.1,13.76 l 1.21,1.11 c 3.45,3.15 10.1,5.74 14.78,5.74 h 4.34 c 4.67,0 10.52,-3.25 12.99,-7.22 l 50.18,-80.66 c 2.47,-3.97 7.06,-6.85 10.21,-6.38 3.14,0.46 5.71,4.66 5.71,9.34 v 64.24 c 0,4.67 2.56,11.25 5.7,14.59 3.13,3.34 7.95,6.09 10.69,6.09 2.75,0 6.97,-2.36 9.38,-5.25 2.41,-2.9 5.09,-9.02 5.97,-13.61 l 1.26,-6.63 c 0.87,-4.59 3.12,-11.63 4.99,-15.64 1.87,-4.02 3.19,-11.12 2.92,-15.79 l -5.84,-102.591 c -0.26,-4.668 -1.2,-11.39 -2.08,-14.937 -0.88,-3.563 -1.64,-6.172 -6.32,-6.172 h -0.9 c -4.68,0 -15.26,2.129 -18.89,5.09 l -2.64,2.148 c -3.63,2.961 -8.61,8.633 -11.08,12.613 l -50.67,81.539 c -2.46,3.98 -7,6.25 -10.07,5.06 -3.07,-1.19 -5.66,-6 -5.77,-10.67 l -0.9,-41.741 c -0.11,-4.68 -2.66,-11.438 -5.67,-15.008 l -0.29,-0.332 c -3.01,-3.578 -3.51,-8.48 -1.11,-10.879 2.41,-2.41 4.47,-6.82 4.59,-9.801 0.11,-2.968 -1.39,-8.308 -3.34,-11.859 -1.94,-3.559 -6.16,-6.461 -9.37,-6.461 -3.21,0 -8.44,2.801 -11.63,6.231 l -0.43,0.46 c -3.18,3.43 -4.59,9.129 -3.12,12.692" /><path
         id="path46"
         style="fill:rgb(218, 79, 111);fill-opacity:1;fill-rule:nonzero;stroke:none"
         d="m 1306.46,947.238 c -1.72,3.332 -2.88,9.141 -2.56,12.922 0.3,3.781 0.55,8.93 0.55,11.449 0,2.532 -1.74,8 -3.87,12.161 l -1,1.949 c -2.13,4.16 -3.88,11.402 -3.88,16.081 v 65.49 c 0,4.67 2.65,11.26 5.89,14.64 l 15.87,16.56 c 3.23,3.38 9.23,6.14 13.33,6.14 4.1,0 9.38,-3.31 11.72,-7.35 l 44.2,-76.13 c 2.35,-4.04 6.89,-6.53 10.09,-5.53 3.2,1.01 5.75,5.66 5.67,10.34 l -1.07,63.41 c -0.09,4.67 1.54,10.77 3.6,13.55 2.06,2.77 6.75,5.04 10.42,5.04 3.66,0 9.25,-2.82 12.41,-6.27 l 3.45,-3.78 c 3.16,-3.45 5.61,-10.1 5.45,-14.77 l -0.68,-19.27 c -0.16,-4.67 -0.21,-12.33 -0.11,-17 l 0.22,-10.49 c 0.1,-4.68 0.89,-11.04 1.76,-14.13 0.86,-3.1 1.65,-9.46 1.75,-14.13 l 0.57,-27.159 c 0.1,-4.68 -2.3,-11.43 -5.33,-14.992 l -5.24,-6.188 c -3.03,-3.57 -3.44,-9.211 -0.92,-12.531 2.52,-3.32 4.21,-9.801 3.75,-14.371 -0.46,-4.578 -4.62,-7.801 -9.26,-7.16 l -3.98,0.551 c -4.64,0.64 -11.49,3.468 -15.23,6.281 l -3.06,2.289 c -3.74,2.82 -8.91,8.301 -11.48,12.211 l -13.15,19.969 c -2.57,3.91 -6.43,10.5 -8.58,14.66 l -11.35,21.96 c -2.15,4.16 -4.46,9.85 -5.13,12.64 -0.67,2.79 -3.1,8.11 -5.41,11.83 -2.31,3.71 -6.62,5.64 -9.59,4.29 -2.97,-1.35 -5.32,-5.73 -5.22,-9.73 0.11,-4.02 0.89,-9.1 1.75,-11.28 0.86,-2.19 1.91,-7.8 2.33,-12.449 l 0.34,-3.851 c 0.42,-4.66 -2.51,-10.328 -6.52,-12.61 -4,-2.269 -7.56,-6.589 -7.91,-9.582 -0.35,-3 1.59,-8.539 4.3,-12.32 2.72,-3.777 3,-9.777 0.63,-13.328 -2.38,-3.559 -7.03,-6.371 -10.35,-6.25 -3.33,0.109 -7.45,2.922 -9.17,6.238" /><path
         id="path48"
         style="fill:rgb(218, 79, 111);fill-opacity:1;fill-rule:nonzero;stroke:none"
         d="m 1587.17,944.969 c 0,2.742 2.77,7.351 6.16,10.222 3.38,2.868 6.15,7.829 6.15,11.008 0,3.172 -2.26,8.871 -5.03,12.641 l -2.25,3.07 c -2.77,3.77 -5.03,10.692 -5.03,15.371 v 61.349 c 0,4.68 1.42,11.36 3.17,14.86 1.74,3.48 5.61,8.77 8.58,11.74 2.97,2.98 5.95,8.11 6.61,11.4 0.65,3.28 2.84,7.18 4.85,8.65 2.01,1.48 5.51,0.92 7.76,-1.24 2.26,-2.16 4.11,-5.88 4.11,-8.29 0,-2.4 -1.18,-6.46 -2.62,-9.02 -1.44,-2.57 -0.38,-7.77 2.36,-11.56 l 1.62,-2.26 c 2.74,-3.79 5.81,-10 6.84,-13.8 1.02,-3.8 1.86,-10.73 1.86,-15.41 v -41.57 c 0,-4.681 -2.45,-11.439 -5.46,-15.021 l -5.63,-6.738 c -3.01,-3.582 -5.88,-9.043 -6.39,-12.141 -0.51,-3.089 1.54,-8.55 4.55,-12.128 l 4.1,-4.852 c 3.01,-3.57 5.56,-9.191 5.67,-12.469 0.1,-3.293 -2.84,-7.742 -6.53,-9.902 -3.7,-2.149 -9.74,-3.82 -13.43,-3.688 -3.69,0.118 -9.48,2.86 -12.87,6.079 l -2.99,2.832 c -3.39,3.218 -6.16,8.117 -6.16,10.867" /><path
         id="path50"
         style="fill:rgb(218, 79, 111);fill-opacity:1;fill-rule:nonzero;stroke:none"
         d="m 1759.26,972.801 c 0.8,4.48 3.21,9.648 5.37,11.5 2.15,1.84 5.22,1.769 9.9,1.898 0,0 7.01,-0.75 11.7,-8.558 4.3,-7.172 11.8,-9.102 16.9,-13.942 4.17,-3.961 8.63,-8.277 15.93,-8.277 2.68,0 5.64,0.058 8.65,0.308 6.1,0.508 13.1,4.348 18.7,8.911 5.07,4.129 9.06,8.668 9.06,15.148 0,18.121 -17.19,22.381 -38.91,25.321 -12.51,1.69 -24.06,8.43 -31.09,11.09 -17.84,6.74 -30,21.13 -30,44.93 0,11.8 6.44,21.87 12.7,29.51 11.97,14.6 22.98,21.19 42.92,21.19 8.04,0 21.05,0.24 27.66,-1.72 8.73,-2.59 17.81,-7.96 25,-13.6 7.61,-5.97 15.46,-14.26 18.34,-21.35 2.84,-7.01 -1.15,-15.37 -5.53,-17.32 -4.37,-1.95 -18.23,0 -18.23,0 -4.68,0 -10.5,3.26 -12.94,7.26 0,0 -7.96,15.24 -25.6,16.09 -8.75,0.42 -13.32,-1.72 -18.23,-4.83 -4.74,-3.01 -11.14,-7.87 -10.31,-16.42 0.8,-8.3 9.06,-15.61 24.22,-19.05 5.65,-1.28 21.02,-2.17 26.37,-3.55 6.71,-1.68 19.53,-6.76 31.13,-15.51 9.53,-7.2 18.26,-14.79 18.26,-31.99 0,-16.61 -3.45,-35.168 -16.85,-46.449 -11.48,-9.653 -31.15,-13.282 -52.19,-13.282 -9.05,0 -22.68,1.551 -31.41,5.621 -15.17,7.079 -24.23,20.75 -24.23,20.75 -3.64,2.918 -8.08,11.848 -7.29,16.321" /><path
         id="path52"
         style="fill:rgb(218, 79, 111);fill-opacity:1;fill-rule:nonzero;stroke:none"
         d="m 2011.14,975.762 c -1.87,4.289 -3.41,11.617 -3.41,16.297 v 81.121 c 0,4.68 0.88,11.45 1.96,15.03 1.07,3.6 4.37,9.5 7.34,13.12 l 0.04,0.05 c 2.97,3.62 8.5,6.58 12.3,6.58 3.79,0 8.79,-2.05 11.1,-4.55 2.31,-2.5 4.21,-8.38 4.21,-13.06 v -23.29 c 0,-4.68 2.79,-10.09 6.22,-12.03 3.42,-1.94 8.84,-0.74 12.04,2.67 l 41.55,44.07 c 3.21,3.41 9.66,6.19 14.34,6.19 h 14.91 c 4.68,0 9.93,-2.73 11.67,-6.05 1.75,-3.32 0.33,-7.98 -3.14,-10.36 -3.49,-2.36 -9.03,-7.03 -12.31,-10.35 l -26.44,-26.73 c -3.29,-3.32 -6.04,-9.87 -6.12,-14.55 l -0.08,-4.58 c -0.07,-4.68 2.1,-11.61 4.83,-15.41 l 39.98,-55.59 c 2.72,-3.801 7.52,-9.75 10.64,-13.238 l 4.34,-4.813 c 3.12,-3.488 4.37,-9.918 2.77,-14.32 l -0.17,-0.508 c -1.6,-4.391 -6.74,-8.102 -11.41,-8.25 l -6.89,-0.223 c -4.67,-0.148 -11.52,2.09 -15.2,4.973 l -5.25,4.09 c -3.68,2.879 -8.87,8.39 -11.51,12.25 l -26.21,38.211 c -2.63,3.859 -8.27,8.629 -12.5,10.617 l -2.9,1.359 c -4.23,1.992 -11.17,2.711 -15.43,1.602 -4.26,-1.102 -7.73,-5.84 -7.73,-10.512 v -6.207 c 0,-4.68 -0.53,-12.301 -1.16,-16.941 l -1.24,-8.891 c -0.64,-4.641 -4.86,-8.519 -9.38,-8.617 -4.52,-0.102 -9.75,3.316 -11.62,7.609 l -10.14,23.231" /><path
         id="path54"
         style="fill:rgb(218, 79, 111);fill-opacity:1;fill-rule:nonzero;stroke:none"
         d="m 2354.57,1050.44 c -2.35,0.26 -8.02,-9.97 -9.37,-14.44 l -7.24,-23.83 c -1.36,-4.47 -1.74,-10.3 -0.83,-12.92 0.9,-2.641 5.46,-4.801 10.14,-4.801 h 9.11 c 4.67,0 10.24,2.699 12.36,6.001 2.12,3.3 2.78,9.67 1.46,14.15 l -6.31,21.51 c -1.33,4.49 -5.53,13.92 -9.32,14.33 z m -78.98,-115.452 c -2.59,2.371 -1.2,9.442 0.45,13.821 l 54.07,143.231 c 1.65,4.38 5.66,10.12 7.23,13.12 1.57,2.96 8.98,2.8 13.66,2.8 h 5 c 4.67,0 14.24,0.05 17.93,-2.83 l 0.03,-0.02 c 3.68,-2.88 5.31,-11.24 6.95,-15.63 l 47.97,-128.261 c 1.64,-4.379 1.37,-11.438 -0.59,-15.688 l -3.48,-7.543 c -1.96,-4.25 -7.39,-7.726 -12.07,-7.726 h -2.03 c -4.67,0 -10.18,3.437 -12.23,7.648 l -5.88,12.051 c -2.05,4.211 -6.61,9.07 -10.13,10.809 -3.51,1.742 -10.22,3.171 -14.9,3.171 h -27.39 c -4.68,0 -11.18,-1.453 -14.43,-3.211 -3.25,-1.769 -7.59,-6.648 -9.64,-10.859 l -2.2,-4.562 c -2.05,-4.207 -7.25,-9.129 -11.56,-10.95 l -4.52,-1.91 c -4.3,-1.828 -10.51,-3.308 -13.77,-3.308 -3.26,0 -5.93,3.519 -8.47,5.847" /><path
         id="path56"
         style="fill:rgb(218, 79, 111);fill-opacity:1;fill-rule:nonzero;stroke:none"
         d="m 2870.02,1154.31 c 6.22,5 15.69,4.68 20.29,2.83 4.6,-1.86 11.06,-6.79 12.19,-13.13 1.56,-8.75 -6.25,-15.62 -14.06,-20.62 -7.81,-5 -16.93,1.9 -20.31,9.69 -3.39,7.78 -4.69,15.93 1.89,21.23 z m -16.99,-111.6 c -4.07,-0.26 -8.45,-4.16 -9.72,-8.66 l -6.04,-21.33 c -1.27,-4.5 -1.37,-11.19 -0.21,-14.88 1.16,-3.68 5.94,-6.692 10.62,-6.692 h 5.89 c 4.68,0 10.51,3.063 12.95,6.813 2.44,3.739 3.43,10.489 2.19,14.999 l -6.03,22.02 c -1.24,4.51 -5.59,7.99 -9.65,7.73 z m -36.78,111.93 c 7.2,1.89 12.36,2.95 18.44,0.31 7.19,-3.12 11.67,-14.14 5.29,-23.86 -6.38,-9.71 -14.36,-9.62 -18.1,-8.33 -3.75,1.29 -12.82,8.75 -13.75,13.44 -0.94,4.69 0.92,16.54 8.12,18.44 z m -31.27,-195.992 c -2.27,4.082 -2.78,11 -1.12,15.372 l 47.82,125.99 c 1.66,4.37 6.85,7.95 11.52,7.95 h 20.87 c 4.68,0 11.28,-2.64 14.67,-5.86 l 2.91,-2.75 c 3.39,-3.23 7.5,-9.45 9.14,-13.83 l 25.09,-67.08 c 1.64,-4.39 3.85,-11.69 4.92,-16.25 l 8.01,-34.12 c 1.07,-4.558 0.75,-11.922 -0.7,-16.359 l -4.62,-14.082 c -1.46,-4.449 -6.03,-8.078 -10.15,-8.09 -4.13,-0.008 -9.77,3.09 -12.52,6.871 l -11.46,15.762 c -2.76,3.777 -8.84,6.867 -13.52,6.867 h -45.82 c -4.68,0 -10.68,-3.141 -13.34,-7 l -3.51,-5.078 c -2.65,-3.852 -7.74,-7 -11.29,-7 -3.55,0 -8.33,3.34 -10.61,7.418 l -6.29,11.269" /><path
         id="path58"
         style="fill:rgb(218, 79, 111);fill-opacity:1;fill-rule:nonzero;stroke:none"
         d="m 3112.09,1075.83 c -1.63,-3.13 -2.64,-9.71 -2.64,-14.38 v -13.82 c 0,-4.68 2.66,-11.06 5.9,-14.17 3.24,-3.12 9.73,-5.67 14.41,-5.67 h 11.66 c 4.67,0 12,1.55 16.29,3.44 0,0 17.62,7.78 17.62,24.73 0,16.24 -8.93,23.29 -25.41,23.29 h -23.08 c -4.68,0 -13.4,-0.81 -14.75,-3.42 z m -38.33,-128.381 c 0.68,4.133 1.25,9.473 1.25,11.879 0,2.402 -0.57,7.281 -1.25,10.844 -0.68,3.539 -1.25,10.277 -1.25,14.957 v 89.661 c 0,4.67 2.58,11.33 5.73,14.79 l 11.03,12.09 c 3.15,3.46 9.56,6.29 14.24,6.29 h 51.09 c 4.68,0 11.91,-1.74 16.08,-3.87 0,0 41.6,-21.22 41.6,-46.64 0,-16.47 -5.57,-33.42 -18.2,-41.66 -2.51,-1.64 -0.95,-7.78 0.92,-8.75 13.14,-6.76 14.13,-12.489 15.16,-27.31 0.26,-3.98 0.88,-9.23 0.81,-14.781 -0.13,-9.527 -12.34,-18.347 -12.34,-18.347 -2.91,-3.653 -8.24,-6.641 -11.83,-6.641 -3.59,0 -7.89,3.578 -9.56,7.949 0,0 -2.03,5.301 -3.91,18.711 -2.59,17.649 -12.08,27.32 -20.68,27.32 h -28.44 c -4.68,0 -10.82,-3.05 -13.64,-6.781 l -2.23,-2.922 c -2.82,-3.726 -5.14,-10.609 -5.14,-15.277 v -7.16 c 0,-4.68 0.78,-9.832 1.73,-11.43 0.95,-1.601 1.73,-4.699 1.73,-6.871 0,-2.18 -1.96,-7.238 -4.37,-11.238 -2.41,-4.024 -8.2,-7.301 -12.88,-7.301 h -3.4 c -4.68,0 -9.63,3.379 -11.01,7.5 -1.37,4.121 -1.92,10.867 -1.24,14.988" /><path
         id="path60"
         style="fill:rgb(218, 79, 111);fill-opacity:1;fill-rule:nonzero;stroke:none"
         d="m 427.363,374.191 c -2.949,3.618 -5.367,10.418 -5.367,15.098 v 472.16 c 0,4.672 -0.258,11.653 2.176,13.762 2.43,2.109 10.492,2.449 15.168,2.449 0,0 23.785,-2.66 25.972,-1.25 2.188,1.399 57.008,1.25 57.008,1.25 4.676,0 11.977,-1.621 16.215,-3.59 l 2.949,-1.359 c 4.243,-1.981 7.715,-7.422 7.715,-12.09 v -489.66 c 0,-4.68 -2.387,-11.5 -5.304,-15.16 l -16.922,-21.199 c -2.914,-3.661 -9.129,-6.653 -13.809,-6.653 h -39.656 c -4.68,0 -10.926,2.973 -13.875,6.59 l -32.27,39.652" /><path
         id="path62"
         style="fill:rgb(218, 79, 111);fill-opacity:1;fill-rule:nonzero;stroke:none"
         d="m 661.949,341.172 c -2.562,3.906 -7.691,9.359 -11.398,12.098 -3.699,2.742 -8.293,8.359 -10.207,12.5 -1.914,4.128 -3.485,11.339 -3.485,16.019 v 444.66 c 0,4.672 0.286,11.879 0.625,16 0.348,4.121 0.629,11.332 0.629,16.012 v 2.16 c 0,4.668 3.328,10.399 7.395,12.707 l 0.215,0.121 c 4.066,2.313 11.218,4.211 15.898,4.211 h 44.402 c 0,0 4.172,-2.238 8.34,-2.238 4.172,0 11.082,2.238 11.082,2.238 4.676,0 15.778,-0.5 19.34,-3.531 l 10.828,-9.188 c 3.567,-3.031 2.125,-31.152 2.125,-35.832 v -378.98 c 0,-4.68 1.582,-11.207 3.524,-14.527 1.937,-3.313 7.308,-5.5 11.945,-4.872 l 1.484,0.2 c 4.641,0.629 12.258,1.148 16.934,1.148 h 210.485 c 4.68,0 10.46,-3.289 12.86,-7.297 l 0.01,-0.019 c 2.39,-4.024 4.35,-11.141 4.35,-15.813 v -57.988 c 0,-4.68 -2.45,-11.449 -5.43,-15.051 l -1.19,-1.422 c -2.99,-3.597 -9.26,-6.539 -13.94,-6.539 H 679.121 c -4.68,0 -10.605,3.199 -13.168,7.11 l -4.004,6.113" /><path
         id="path64"
         style="fill:rgb(218, 79, 111);fill-opacity:1;fill-rule:nonzero;stroke:none"
         d="m 1056.87,340.531 c -2.71,3.809 -4.94,10.75 -4.94,15.43 v 465.488 c 0,4.672 -0.25,11.68 -0.54,15.59 -0.31,3.902 -0.36,9.332 -0.14,12.082 0.23,2.75 -0.52,8.379 -1.67,12.5 -1.14,4.117 0.36,10.309 3.34,13.75 2.98,3.438 8.79,6.098 12.91,5.93 4.13,-0.192 10.13,-2.25 13.34,-4.59 3.2,-2.34 9.34,-2.742 13.63,-0.883 l 9.4,4.082 c 4.29,1.86 11.59,2.828 16.22,2.168 l 22.33,-3.207 c 4.63,-0.672 11.43,-3.582 15.11,-6.461 l 10.25,-8.039 c 3.68,-2.891 6.7,-9.082 6.7,-13.75 V 438.09 c 0,-4.68 0.68,-8.512 1.51,-8.512 0.83,0 4.32,0 7.76,0 3.43,0 10.07,0.024 14.75,0.043 l 220.5,1.129 c 4.68,0.02 10.43,-2.961 12.79,-6.629 2.36,-3.672 4.28,-10.5 4.28,-15.172 v -57.988 c 0,-4.68 -2.69,-11.223 -5.99,-14.539 l -2.42,-2.442 c -3.29,-3.32 -9.82,-6.031 -14.5,-6.031 h -337.15 c -4.68,0 -10.73,3.11 -13.44,6.922 l -4.03,5.66" /><path
         id="path66"
         style="fill:rgb(218, 79, 111);fill-opacity:1;fill-rule:nonzero;stroke:none"
         d="m 1474.29,858.949 c 0,4.672 1.47,10.801 3.27,13.602 1.81,2.808 6.65,3.75 10.77,2.09 4.13,-1.661 9.75,-1.661 12.5,0 2.75,1.66 8.82,3.019 13.5,3.019 h 331.33 c 4.68,0 11.09,-2.828 14.25,-6.281 l 8.52,-9.309 c 3.16,-3.461 5.74,-10.109 5.74,-14.781 v -13.82 c 0,-4.68 -1.12,-12.168 -2.5,-16.629 l -8.33,-27.09 c -1.38,-4.469 -5.68,-9.352 -9.59,-10.84 -3.9,-1.5 -10.91,-2.699 -15.59,-2.68 l -232.15,1.18 c -4.68,0.02 -10.44,-1.449 -12.81,-3.289 -2.37,-1.832 -4.25,-7.16 -4.2,-11.832 l 0.9,-75.488 c 0.06,-4.68 1.98,-10.571 4.27,-13.102 2.29,-2.519 7.99,-4.578 12.67,-4.578 h 222.99 c 4.68,0 11.04,-2.871 14.13,-6.391 l 10.6,-12.089 c 3.09,-3.512 5.24,-10.192 4.8,-14.852 l -1.37,-14.027 c -0.45,-4.66 -2.13,-12.063 -3.73,-16.461 l -0.85,-2.36 c -1.6,-4.402 -2.91,-11.171 -2.91,-15.07 0,-3.902 -1.88,-8.949 -4.17,-11.25 -2.29,-2.293 -7.83,-5.23 -12.33,-6.543 l -9.51,-2.758 c -4.49,-1.3 -11.95,-1.808 -16.58,-1.129 l -11.49,1.688 c -4.63,0.68 -11.99,0.281 -16.34,-0.899 -4.36,-1.171 -11.67,-2.109 -16.25,-2.082 -4.58,0.032 -11.89,1.481 -16.23,3.223 l -5.04,2.008 c -4.34,1.742 -10.15,5.973 -12.9,9.41 -2.75,3.441 -7.22,4.992 -9.93,3.441 -2.71,-1.539 -8.73,-2.39 -13.38,-1.89 l -4.07,0.441 c -4.65,0.508 -12.12,-0.179 -16.6,-1.519 l -0.36,-0.121 c -4.48,-1.34 -10.77,-2.25 -13.98,-2.02 -3.21,0.238 -9.15,-1.492 -13.2,-3.84 l -9.45,-5.472 c -4.05,-2.34 -10.17,-4.25 -13.61,-4.25 -3.44,0 -9.45,1.082 -13.34,2.402 -3.89,1.328 -10.79,1.488 -15.33,0.367 l -2.99,-0.726 c -4.54,-1.133 -8.49,-5.864 -8.78,-10.532 l -2.87,-88.218 c -0.29,-4.672 0.42,-11.872 1.56,-15.993 1.15,-4.121 1.8,-15.121 5,-17.32 3.21,-2.199 8.09,-2.758 10.84,-1.25 2.75,1.512 8.81,2.441 13.48,2.051 l 22.2,-1.828 c 4.66,-0.391 12.1,-1.934 16.53,-3.43 l 3.9,-1.312 c 4.43,-1.5 11.39,-0.848 15.47,1.429 l 0.09,0.063 c 4.08,2.277 11.18,4.34 15.79,4.547 4.6,0.222 10.61,-2.707 13.34,-6.508 l 5.06,-7.02 c 2.73,-3.801 7.22,-7.09 9.97,-7.332 2.75,-0.219 8.17,1.731 12.05,4.352 l 10.07,6.769 c 3.88,2.621 9.49,2.321 12.47,-0.648 2.97,-2.981 7.29,-5.422 9.58,-5.422 2.29,0 6.98,2.441 10.42,5.422 3.44,2.969 10.08,5.406 14.76,5.406 h 70.48 c 4.68,0 11.19,-2.348 14.47,-5.226 3.28,-2.883 5.95,-9.063 5.95,-13.731 v -61.32 c 0,-4.68 -3.62,-9.75 -8.04,-11.262 l -5.82,-2 c -4.43,-1.508 -8.82,1 -9.77,5.582 l -2.4,11.668 c -0.95,4.582 -5.45,7.481 -10.01,6.461 l -27.58,-6.25 c -4.56,-1.031 -11.42,-4.09 -15.23,-6.781 l -10.3,-7.278 c -3.81,-2.691 -10.76,-4.64 -15.43,-4.32 l -1.35,0.09 c -4.67,0.32 -10.92,2.641 -13.9,5.16 -2.98,2.52 -8.47,2.277 -12.2,-0.551 l -8.93,-6.742 c -3.73,-2.828 -10.61,-5.129 -15.29,-5.129 h -234.65 c -4.68,0 -10.65,3.16 -13.29,7.031 l -1.99,2.942 c -2.63,3.867 -4.78,10.859 -4.78,15.539 v 505.488" /><path
         id="path68"
         style="fill:rgb(218, 79, 111);fill-opacity:1;fill-rule:nonzero;stroke:none"
         d="m 2957.55,364.789 c -0.03,4.672 2.95,10.871 6.62,13.77 l 6.66,5.293 c 3.67,2.898 6.1,8.078 5.42,11.519 -0.68,3.438 -4.28,8.59 -7.99,11.438 l -3.84,2.961 c -3.7,2.851 -6.73,6.871 -6.73,8.929 0,2.063 0.96,7.449 2.15,11.973 l 0.5,1.898 c 1.18,4.52 2.47,12.039 2.86,16.7 l 0.11,1.371 c 0.39,4.66 0.7,12.308 0.7,16.988 v 387.16 c 0,4.672 3.27,10.492 7.26,12.93 l 4.54,6.332 c 3.99,2.437 15.52,3.609 20.2,3.609 h 48.81 c 4.68,0 11.77,-2.012 15.76,-4.449 l 17.07,-10.481 c 3.98,-2.441 7.24,-8.269 7.24,-12.941 V 438.09 c 0,-4.68 3.83,-8.5 8.51,-8.488 l 153.92,0.328 c 4.68,0.011 10.95,-0.559 13.93,-1.27 2.98,-0.711 6.26,-6.25 6.36,-9.73 0.1,-3.489 -1.79,-8.899 -1.57,-14.11 0.21,-5.199 4.84,-10.461 9.16,-12.269 0,0 8.21,-3.063 11.86,-4.172 3.65,-1.109 11.67,-0.617 15.62,6.25 3.94,6.859 4.33,15.16 5.41,17.902 1.07,2.739 2.3,7.649 4.82,10.989 2.53,3.339 8.42,6.058 13.1,6.058 h 2.15 c 4.68,0 10.72,-2.539 13.42,-5.637 2.7,-3.113 4.9,-9.48 4.9,-14.152 v -44.66 c 0,-4.68 -2.72,-11.199 -6.04,-14.488 l -16.9,-16.711 c -3.32,-3.289 -9.87,-5.981 -14.55,-5.981 h -322.15 c -4.68,0 -11.7,2.11 -15.6,4.699 l -6.46,4.274 c -3.9,2.59 -7.11,8.527 -7.14,13.207 l -0.09,14.66" /><path
         id="path70"
         style="fill:rgb(218, 79, 111);fill-opacity:1;fill-rule:nonzero;stroke:none"
         d="m 3096.21,1981.18 c -3.49,0.4 -10.17,0.73 -14.84,0.73 h -0.01 c -4.68,0 -9.48,-3.59 -10.69,-7.96 -1.2,-4.39 -1.76,-10.17 -1.27,-12.86 0.5,-2.7 3.2,-5.47 5.98,-6.16 2.78,-0.7 7.51,0.36 10.5,2.34 3,2 7.88,5.58 10.88,7.97 2.99,2.4 5.51,6.79 5.6,9.79 0.11,2.99 -2.66,5.76 -6.15,6.15" /><path
         id="path72"
         style="fill:rgb(218, 79, 111);fill-opacity:1;fill-rule:nonzero;stroke:none"
         d="m 3153.61,1979.19 c -2.39,0.11 -4.66,-1.52 -5.07,-3.62 -0.4,-2.09 2.46,-5.43 6.34,-7.43 3.89,-1.99 9.67,-5.82 12.85,-8.5 3.2,-2.7 9.52,-5.84 14.05,-7 l 1.98,-0.5 c 4.53,-1.16 11.18,-1.13 14.77,0.06 0,0 0,0 0,1.09 0,1.1 0,14.68 0,14.68 0,4.67 -2.45,9.16 -5.44,9.95 -2.99,0.8 -9.26,1.4 -13.94,1.35 l -12.69,-0.15 c -4.67,-0.06 -10.45,-0.03 -12.85,0.07" /><path
         id="path74"
         style="fill:rgb(218, 79, 111);fill-opacity:1;fill-rule:nonzero;stroke:none"
         d="m 2814.15,594.531 -4.77,-3.402 c -4.47,-3.18 -9.7,-1.988 -11.63,2.633 -1.92,4.629 -1.92,11.578 0,15.437 1.93,3.86 5.98,7.012 9.01,7.012 3.02,0 7.75,-3.57 10.51,-7.949 2.75,-4.371 1.34,-10.551 -3.12,-13.731 z m -75.3,-41.832 c -1.32,-4.34 -6.23,-7.89 -10.91,-7.89 h -98.01 c -4.68,0 -10.3,2.632 -12.5,5.832 -2.2,3.211 -2.83,9.48 -1.4,13.929 l 51.87,162.309 c 1.43,4.461 4.17,8.453 6.1,8.891 1.93,0.429 4.6,-1.301 5.94,-3.829 1.34,-2.543 3.62,-8.07 5.08,-12.3 1.44,-4.231 3.25,-11.262 4,-15.629 0.76,-4.371 2.72,-11.532 4.36,-15.903 0,0 19.12,-58.988 25.79,-78.988 6.67,-20 19.09,-40.582 19.09,-40.582 1.64,-4.379 1.91,-11.508 0.59,-15.84 z M 2935.87,357.93 c 0,0 -138.55,372.468 -143.04,386 -4.49,13.519 -17.82,26.851 -21.99,43.519 -4.17,16.672 -5.63,30.242 -9.48,41.371 -3.85,11.129 -15.14,40.86 -15.14,40.86 -1.63,4.39 -6.79,7.98 -11.46,7.98 h -111.42 c -4.68,0 -9.86,-3.578 -11.52,-7.949 0,0 -24.19,-61.231 -28.48,-77.262 -4.29,-16.019 -15.83,-46.668 -20,-65.828 -4.17,-19.16 -21.68,-46.672 -28.33,-64.172 -6.65,-17.5 -104.57,-282.379 -104.57,-282.379 -1.66,-4.379 -6.36,-7.871 -10.44,-7.781 -4.08,0.082 -7.32,3.992 -7.21,8.672 l 5.34,212.98 c 0.11,4.668 -2.05,11.59 -4.81,15.368 l -15.82,20.64 c -2.76,3.781 -22.82,6.66 -27.5,6.66 h -133.99 c -4.68,0 -11.81,-1.937 -15.83,-4.32 l -4.86,-2.848 c -4.02,-2.371 -9.62,-7.382 -12.41,-11.121 l -9.89,-13.23 c -2.8,-3.738 -5.09,-10.641 -5.09,-15.309 v -19.652 c 0,-4.68 3.56,-9.899 7.92,-11.59 l 3.4,-1.328 c 4.35,-1.699 11.09,-5.231 14.97,-7.84 l 14.23,-9.57 c 3.87,-2.602 10.88,-4.742 15.55,-4.742 h 57.08 c 4.68,0 6.81,-3.43 4.74,-7.618 0,0 -54.93,-110.961 -133.45,-110.961 -61.69,0 -101.49,29.84 -124.36,72.399 -3.58,6.652 -5.58,-1.969 -8.34,5.242 -2.01,5.25 -37.4,-0.891 -41.67,5 -5.38,7.43 -23.2,21.469 -27.5,30.828 -3.83,8.332 -5.66,14.461 3.33,19.172 5.65,2.969 12.31,4.688 14.17,11.66 0.65,2.457 -16.31,8.141 -15.83,15.84 0.37,5.957 10.48,14.078 20,12.5 9,-1.5 13.8,-1.262 21.58,-6.043 6.77,-4.156 15,-5 15.6,17.41 2.55,96.211 34.46,188.621 143.02,188.621 52.44,0 91.49,-13.711 125.69,-72.14 2.38,-4.071 5.75,-4.129 5.75,-4.129 4.68,-0.078 12.31,0.211 16.97,0.64 l 8.72,0.809 c 4.66,0.43 11.99,-0.719 16.3,-2.539 l 0.01,-0.012 c 4.31,-1.828 11.66,-3.168 16.33,-2.968 l 28.29,1.152 c 18.32,0.656 19.86,23.469 18.73,28.18 -25.64,106.058 -133.06,152.636 -236.79,152.636 -128.9,0 -213.97,-72.929 -247.62,-179.277 -4.11,-12.961 -6.35,-34.27 -8.91,-48.172 -4.16,-22.527 -7.36,-38.34 -7.36,-62.801 0,-158.597 93.76,-285.629 263.89,-285.629 53.13,0 144.16,70.262 144.16,70.262 3.7,2.859 8.67,3.707 11.04,1.879 2.37,-1.809 4.35,-7.129 4.41,-11.801 l 0.28,-22.488 c 0.05,-4.672 3.08,-10.902 6.72,-13.84 l 6.9,-5.582 c 3.64,-2.937 10.37,-5.34 14.96,-5.34 4.58,0 9.83,0.633 11.66,1.422 1.84,0.789 6.15,0.789 9.59,0 3.44,-0.789 9.84,-1.422 14.24,-1.422 4.4,0 9.85,0 12.13,0 2.26,0 7.95,0 12.62,0 h 97.15 c 4.68,0 9.88,3.571 11.56,7.942 l 37.16,96.75 c 1.68,4.359 6.58,9.418 10.89,11.23 l 7.66,3.207 c 4.31,1.813 11.54,2.32 16.07,1.152 l 4.37,-1.14 c 4.53,-1.168 11.96,-1.27 16.51,-0.219 l 6.77,1.578 c 4.55,1.051 8.16,5.75 8.03,10.422 l -0.33,10.918 c -0.13,4.672 2.87,10.731 6.67,13.441 l 19.98,14.282 c 3.81,2.707 10.69,5.66 15.28,6.547 l 9.13,1.781 c 4.59,0.89 8.18,-2.219 7.98,-6.879 l -0.59,-13.84 c -0.2,-4.68 3.37,-9.301 7.95,-10.281 l 6.7,-1.442 c 4.58,-0.976 11.52,-3.867 15.44,-6.437 l 18.26,-11.93 c 3.92,-2.57 10.61,-6.23 14.87,-8.152 l 9.5,-4.27 c 4.26,-1.918 11.52,-4.129 16.13,-4.918 l 12.4,-2.132 c 4.61,-0.789 11.35,-3.848 14.99,-6.789 l 21.78,-17.641 c 3.64,-2.938 9.03,-8.32 11.98,-11.938 l 7.6,-9.32 c 2.95,-3.621 2.89,-9.512 -0.14,-13.062 l -3.15,-3.707 c -3.03,-3.563 -8.34,-3.903 -11.8,-0.762 l -5.75,5.219 c -3.46,3.14 -9.85,5.722 -14.21,5.722 -4.36,0 -9.06,-3.652 -10.47,-8.109 l -4.06,-12.934 c -1.41,-4.468 -0.54,-11.367 1.91,-15.359 l 7.23,-11.688 c 2.45,-3.992 8.29,-7.242 12.97,-7.242 h 45.99 c 4.68,0 12.3,0.539 16.93,1.192 l 3.16,0.449 c 4.63,0.648 12.21,0.672 16.85,0.051 l 3.98,-0.551 c 4.64,-0.621 10.85,1.82 13.81,5.441 l 7.23,8.84 c 2.96,3.617 4.05,10.168 2.42,14.559" /><path
         id="path76"
         style="fill:rgb(218, 79, 111);fill-opacity:1;fill-rule:nonzero;stroke:none"
         d="m 3049.17,434.109 c 2.75,1.84 6.49,1.102 8.33,-1.66 1.84,-2.75 1.01,-8.039 -1.84,-11.758 l -0.49,-0.652 c -2.85,-3.719 -7.04,-6.187 -9.33,-5.508 -2.3,0.68 -3.6,4.629 -2.92,8.75 0.68,4.117 3.5,9.008 6.25,10.828" /><path
         id="path78"
         style="fill:rgb(218, 79, 111);fill-opacity:1;fill-rule:nonzero;stroke:none"
         d="m 3152.92,400.359 c 3.44,1.153 8.86,-0.711 12.05,-4.129 l 0.06,-0.058 c 3.19,-3.422 2.8,-8.281 -0.87,-10.813 -3.66,-2.519 -9.47,-4.578 -12.91,-4.578 -3.44,0 -5.89,3.809 -5.44,8.469 l 0.05,0.559 c 0.45,4.66 3.62,9.41 7.06,10.55" /><path
         id="path80"
         style="fill:rgb(218, 79, 111);fill-opacity:1;fill-rule:nonzero;stroke:none"
         d="m 3175.44,1381.79 -0.88,-3.5 c -1.13,-4.54 -5.66,-6.96 -10.07,-5.39 l -1.48,0.53 c -4.41,1.57 -9.13,5.11 -10.51,7.86 -1.38,2.75 -1.66,6.97 -0.62,9.37 1.03,2.41 5.61,3.59 10.19,2.63 l 7.11,-1.5 c 4.58,-0.96 7.39,-5.46 6.26,-10 z m -15.44,60.12 c 2.06,0.35 4.03,-1.62 4.38,-4.37 0.34,-2.75 -1.07,-5.84 -3.13,-6.88 -2.06,-1.03 -4.03,0.94 -4.37,4.38 -0.35,3.44 1.06,6.53 3.12,6.87 z m 54.72,270.87 c -0.03,4.68 -1.3,12.12 -2.83,16.54 l -1.33,3.87 c -1.53,4.43 -6.15,9.85 -10.28,12.05 l -5.28,2.83 c -4.13,2.21 -11.33,4.02 -16.01,4.02 h -17.36 c -4.68,0 -12.15,-1.16 -16.6,-2.59 l -1.93,-0.62 c -4.46,-1.43 -9.64,-1.28 -11.54,0.31 -1.89,1.59 -6.11,2.9 -9.37,2.9 -3.26,0 -9.37,-1.71 -13.56,-3.79 l -3.95,-1.97 c -4.19,-2.08 -7.53,-7.62 -7.43,-12.3 l 5.95,-276.11 c 0.1,-4.68 0.76,-12.28 1.47,-16.91 l 0.38,-2.56 c 0.7,-4.63 3.67,-9.95 6.59,-11.85 2.92,-1.89 5.88,-6.11 6.56,-9.37 0.69,-3.27 -0.94,-2.74 -3.18,-4.97 -2.24,-2.24 -3.32,-3.7 -5.72,-5.17 -1.92,-1.18 -4.48,-9.35 -2.73,-13.69 l 0.95,-2.35 c 1.75,-4.34 1.54,-11.1 -0.47,-15.03 -2.01,-3.93 -3.98,-10.54 -4.37,-14.69 -0.4,-4.14 -4.4,-6.48 -8.89,-5.18 l -8.13,2.36 c -4.49,1.29 -7.23,6.07 -6.1,10.61 l 0.05,0.17 c 1.13,4.54 1.94,11.4 1.8,15.26 -0.15,3.86 -2.25,10.29 -4.66,14.29 l -209.07,345.97 c -2.42,4.01 -8.23,7.28 -12.9,7.28 h -43.77 c -4.68,0 -11.32,-0.98 -14.76,-2.19 -3.43,-1.2 -8.35,-2.19 -10.94,-2.19 -2.58,0 -6.51,0.99 -8.75,2.19 -2.23,1.21 -7.89,2.19 -12.57,2.19 h -4.23 c -4.68,0 -11.22,-2.7 -14.55,-5.98 l -7,-6.96 c -3.32,-3.29 -5.97,-9.81 -5.9,-14.49 l 4.89,-294.86 c 0.08,-4.68 2.44,-11.57 5.25,-15.3 l 4.08,-5.41 c 2.82,-3.73 7.16,-7.01 9.64,-7.29 2.49,-0.28 5.88,-4.09 7.52,-8.47 l 3.4,-9.08 c 1.64,-4.37 1.03,-11.25 -1.37,-15.27 l -7.78,-13.04 c -2.39,-4.02 -4.02,-8.96 -3.6,-10.98 0.41,-2.02 1.98,-7.29 3.49,-11.72 l 2.62,-7.65 c 1.51,-4.43 0.79,-11.33 -1.61,-15.35 l -11.85,-19.78 c -2.4,-4.01 -4.64,-11.11 -4.98,-15.78 l -3.27,-45.53 c -0.34,-4.67 1.72,-11.52 4.57,-15.22 l 20.25,-26.31 c 2.86,-3.7 9.02,-6.74 13.7,-6.74 h 52.36 c 4.68,0 16.54,-0.38 17.89,5.46 l 2.53,5.95 c 3.38,3.23 6.14,9.7 6.14,14.38 v 348.1 c 0,4.68 1.31,8.6 2.9,8.7 1.59,0.09 4.88,-3.09 7.31,-7.09 l 150.72,-249.33 c 2.42,-4 7.38,-9.69 11.02,-12.63 l 0.34,-0.28 c 3.64,-2.94 10.43,-5.1 15.09,-4.78 l 1.78,0.11 c 4.67,0.32 11.96,-1.03 16.21,-3 l 0.8,-0.37 c 4.25,-1.96 7.35,-7.37 6.88,-12.02 l -0.8,-8.08 c -0.47,-4.65 -0.02,-12.19 1,-16.76 l 6.42,-28.77 c 1.03,-4.57 5.63,-7.7 10.25,-6.94 l 4.88,0.78 c 4.62,0.75 9.69,-2.25 11.29,-6.64 l 2.34,-6.51 c 1.59,-4.39 5.74,-10.54 9.23,-13.66 l 1.07,-0.96 c 3.49,-3.11 10.17,-5.66 14.85,-5.66 h 5.48 c 4.68,0 11.47,2.43 15.08,5.39 l 19.36,15.88 c 3.61,2.96 7.27,8.34 8.13,11.95 0.86,3.61 4.38,5.86 7.82,5 3.43,-0.86 8.7,1.38 11.68,4.98 l 12,14.42 c 2.98,3.6 5.44,8.23 5.44,10.29 0,2.05 -1.76,7.14 -3.91,11.29 l -0.61,1.16 c -2.14,4.15 -3.77,11.38 -3.61,16.05 l 0.04,1.13 c 0.16,4.67 2.12,10.74 4.36,13.49 2.23,2.76 3.18,7.4 2.1,10.32 -1.09,2.91 -3.05,7.41 -4.38,10 -1.33,2.57 -2.52,8.51 -2.66,13.18 l -0.13,4.88 c -0.14,4.67 1.16,9.62 2.88,11 1.72,1.38 2.84,4.89 2.5,7.81 -0.34,2.92 -2.6,7.99 -5,11.25 -2.4,3.26 -3.84,9.73 -3.18,14.36 l 0.1,0.66 c 0.67,4.63 3.6,9.69 6.52,11.23 2.92,1.54 5.62,6.63 6,11.29 l 0.16,1.8 c 0.38,4.66 0.67,12.3 0.64,16.98 l -1.85,296.11" /><path
         id="path82"
         style="fill:rgb(218, 79, 111);fill-opacity:1;fill-rule:nonzero;stroke:none"
         d="m 3122.58,2108.42 c -2.74,-3.8 -5.1,-8.81 -5.25,-11.15 -0.14,-2.35 3.43,-5.23 7.95,-6.42 l 5.52,-1.45 c 4.52,-1.19 10.94,-0.24 14.26,2.1 3.33,2.34 6.23,7.03 6.45,10.43 0.23,3.4 -2.72,8.37 -6.56,11.04 l -0.6,0.43 c -3.84,2.67 -8.71,4.87 -10.81,4.87 -2.12,0 -6.09,-3.11 -8.82,-6.9 l -2.14,-2.95" /><path
         id="path84"
         style="fill:rgb(218, 79, 111);fill-opacity:1;fill-rule:nonzero;stroke:none"
         d="m 2952.89,2103.77 c -4.62,0.78 -9.35,3.99 -11.68,2.55 -2.34,-1.43 -3.4,-4.64 -2.34,-7.13 1.06,-2.49 3.35,-6.01 5.08,-7.83 1.73,-1.81 6.99,-3.29 11.67,-3.29 h 3.02 c 4.68,0 8.28,0.88 8.86,5.79 0.58,4.91 -3.97,8.12 -8.59,8.91 l -6.02,1" /><path
         id="path86"
         style="fill:rgb(218, 79, 111);fill-opacity:1;fill-rule:nonzero;stroke:none"
         d="m 3516.04,568.051 -1.7,-9.281 c -0.86,-4.598 -4.34,-5.731 -7.75,-2.532 l -3.98,3.742 c -3.41,3.2 -3.23,8.258 0.37,11.239 l 3.24,2.66 c 3.6,2.98 7.65,4.762 8.98,3.961 1.31,-0.789 1.7,-5.192 0.84,-9.789 z m -22.72,34.23 -0.54,-0.73 c -2.76,-3.77 -8.26,-8.891 -12.21,-11.391 l -3.92,-2.469 c -3.95,-2.5 -6.1,-6.089 -6.64,-8.73 -0.53,-2.652 -2.47,-7.832 -2.47,-10.742 0,-2.91 -0.93,-9 -2.06,-13.539 l -0.69,-2.758 c -1.14,-4.543 -1.33,-6.402 -2.91,-6.141 -1.6,0.27 -1.91,2.688 -1.47,7.34 l -0.41,23.481 c 0.44,4.66 0.8,12.296 0.8,16.968 v 9.95 c 0,4.671 2.17,10.242 4.82,12.351 2.64,2.117 8.6,3.309 13.23,2.66 l 10.11,-1.461 c 4.63,-0.648 8.64,-2.711 8.91,-4.57 0.26,-1.859 -1.79,-6.461 -4.55,-10.219 z m -24.82,-282.91 c -4.23,-1.601 -9,-1.601 -10.59,0 -1.58,1.578 -1.8,4.168 -0.47,5.77 1.32,1.589 3.91,1.629 7.87,1.89 3.97,0.258 6.19,-0.019 6.72,-1.871 0.54,-1.859 0.7,-4.211 -3.53,-5.789 z m 11.56,378.34 c 1.58,0 4.03,-3.66 5.44,-8.109 l 0.66,-2.082 c 1.41,-4.45 1.6,-11.809 0.42,-16.34 l -2.46,-9.532 c -1.18,-4.527 -3.01,-6.718 -4.06,-4.859 -1.07,1.852 -1,9.461 -0.68,13.52 0.31,4.062 -2.9,14.031 -2,18.89 0.9,4.86 1.09,8.512 2.68,8.512 z m -37.55,-523.723 c -1.59,-1.047 -4.19,1.121 -5.77,4.821 -1.59,3.703 -1.59,8.902 0,11.55 1.58,2.653 3.98,1.153 5.32,-3.328 l 0.9,-2.972 c 1.34,-4.481 1.14,-9.008 -0.45,-10.071 z m -109.54,0.032 -1.38,-2.918 c -2,-4.231 -6.24,-7.473 -9.42,-7.204 -3.18,0.262 -7.07,3.512 -8.65,7.211 -1.6,3.7 -0.39,7.801 3.2,9.672 3.59,1.879 5.47,1.09 8.44,2.34 2.97,1.25 5.59,1.18 7.18,-0.152 1.59,-1.321 2.63,-4.719 0.63,-8.949 z m 205.67,509.98 4.02,4.609 c 3.07,3.532 5.58,10.25 5.58,14.93 v 3.012 c 0,4.679 -1.19,11.699 -2.63,15.609 -1.46,3.91 -3.4,5 -5.18,9.078 -1.77,4.094 -5.04,6.703 -9.03,4.453 -2.62,-1.461 -4.93,-3.312 -6.97,-5.351 -2.05,-2.039 -6.53,-2.809 -10.7,-4.141 -4.17,-1.328 -10.64,-0.308 -14.37,2.27 -3.73,2.57 -5.96,8.222 -4.97,12.562 1,4.328 0.85,10.981 -0.34,14.77 -1.19,3.789 -5.7,8.328 -10.04,10.078 l -12.62,5.101 c -4.34,1.739 -11.55,2.071 -16.02,0.7 l -2.78,-0.852 c -4.47,-1.367 -7.92,-5.308 -7.65,-8.777 0.27,-3.469 -1.16,-9.762 -3.16,-13.981 l -3.28,-6.922 c -2.01,-4.226 -3.68,-11.507 -3.71,-16.187 l -1.02,-158.699 c -0.03,-4.68 1.19,-12.121 2.71,-16.543 l 12.62,-36.578 c 1.53,-4.422 2.59,-11.852 2.36,-16.532 l -0.66,-13.398 c -0.22,-4.672 1.39,-8.211 2.33,-10.711 0.93,-2.5 3.27,-6.93 3.12,-11.41 -0.16,-4.84 -3.22,-13.371 -3.75,-17.18 -0.54,-3.82 -4.49,-8.14 -8.81,-9.949 l -4.33,-1.813 c -4.32,-1.808 -7.63,-5.187 -7.37,-7.488 0.28,-2.308 0.32,-6.379 3.17,-7.629 4.14,-1.812 5.21,-0.312 8.43,-1.722 1.87,-0.809 5.99,-0.52 5.99,-0.52 4.68,-0.199 5.43,-0.758 7.92,-2.711 2.49,-1.949 2.35,-6.656 2,-10.379 -0.35,-3.73 -0.82,-7.09 -2.91,-9.59 -2.09,-2.5 -7.49,-3.308 -7.49,-3.308 -4.46,-1.391 -5.48,-5.512 -8.47,-9.102 l -1.73,-2.09 c -2.99,-3.597 -2.02,-17.859 1.12,-21.328 l 1.17,-1.301 c 3.15,-3.468 3.34,-3.89 6.78,-3.261 3.44,0.621 5.47,0.472 8.91,1.562 3.43,1.09 3.56,3.75 6.71,3.438 3.13,-0.309 0.08,-1.981 -1.87,-4.379 -1.94,-2.399 -6.56,-3.281 -11.25,-4.059 -4.59,-0.761 -6.92,-1.742 -9.99,-5.261 l -2.64,-3.032 c -3.07,-3.527 -2.55,-8.238 -3.78,-13.117 -1.23,-4.871 -0.49,-12.332 -0.93,-19.371 -0.45,-7.039 -1.13,-18.789 -1.12,-23.469 l 0.02,-9.152 c 0.01,-4.668 0.9,-12.059 1.97,-16.41 1.08,-4.348 -0.33,-10.981 -3.11,-14.731 l -6.08,-8.187 c -2.78,-3.75 -7.68,-6.852 -10.86,-6.871 -3.21,-0.008 -7.42,-2.5 -10.79,-2.95 -3.37,-0.449 -7.53,-0.261 -10.35,-0.281 -2.82,-0.019 -6.17,-1.41 -7.72,0.18 -1.55,1.59 -6.65,2.871 -11.33,2.84 l -6.52,-0.039 c -4.68,-0.032 -10.37,-1.442 -12.65,-3.149 -2.29,-1.699 -6.69,-3.101 -9.79,-3.121 -3.1,-0.012 -7.58,1.34 -9.96,3.012 -2.36,1.68 -8.13,3.18 -12.8,3.34 l -1.41,0.039 c -4.67,0.168 -10.55,-2.391 -13.05,-5.672 -2.51,-3.289 -6.31,-9.379 -8.44,-13.539 l -3.36,-6.59 c -2.13,-4.16 -1.86,-10.211 0.61,-13.441 2.46,-3.25 4.28,-8.45 4.06,-11.579 -0.24,-3.121 -2.11,-5.968 -4.18,-6.32 -2.07,-0.359 -6.6,1.918 -10.07,5.051 l -10.2,9.211 c -3.47,3.137 -8.14,5.969 -10.37,6.289 -2.24,0.32 -7.08,2.937 -10.76,5.828 l -19.78,15.539 c -3.68,2.891 -9.83,5.32 -13.65,5.41 -3.83,0.094 -7.63,-1.988 -8.45,-4.629 -0.82,-2.64 -3.51,-4.609 -5.98,-4.39 -2.46,0.203 -6.36,3.722 -8.64,7.793 l -0.79,1.418 c -2.29,4.07 -6.81,7.629 -10.05,7.922 -3.24,0.277 -7.9,-1.704 -10.36,-4.403 -2.47,-2.699 -8.31,-4.91 -12.99,-4.91 h -0.57 c -4.67,0 -11.81,1.922 -15.86,4.281 l -4.68,2.719 c -4.05,2.352 -11.19,4.281 -15.86,4.281 h -158.1 c -4.68,0 -11.56,-1.679 -15.3,-3.73 -3.74,-2.051 -9.15,-3.731 -12.02,-3.731 -2.87,0 -7.2,1.68 -9.62,3.731 -2.41,2.051 -8.21,3.73 -12.89,3.73 h -47.16 c -4.68,0 -11.49,-2.398 -15.12,-5.34 l -2.37,-1.921 c -3.63,-2.938 -8.89,-5.34 -11.66,-5.34 -2.78,0 -7.98,2.472 -11.55,5.492 l -1.94,1.617 c -3.57,3.024 -10.32,5.492 -15,5.492 h -39.86 c -4.68,0 -11.49,-2.281 -15.15,-5.058 -3.64,-2.782 -9.68,-5.063 -13.43,-5.063 -3.74,0 -9.93,2.199 -13.75,4.883 l -0.5,0.359 c -3.83,2.68 -10.79,4.879 -15.47,4.879 h -0.07 c -4.68,0 -11.91,-1.75 -16.07,-3.89 l -2.93,-1.508 c -4.16,-2.141 -7.28,-4.313 -11.42,-3.891 -1.18,0.117 -3.68,2.071 -7.62,4.598 l -0.12,0.09 c -3.94,2.531 -10.98,4.601 -15.66,4.601 h -70.2 c -7.85,0 -10.34,-2.648 -12.57,-5.879 -2.24,-3.242 -2.05,-8.679 0.41,-12.089 2.46,-3.422 4.7,-8.942 4.97,-12.27 0.27,-3.32 -1.92,-7.082 -4.89,-8.344 -2.97,-1.258 -7.82,-4.058 -10.77,-6.218 -2.97,-2.149 -8.97,-3.309 -12.36,-5.239 -6.08,-3.472 -19.19,-13.562 -19.19,-13.562 -3.31,-3.309 -9.84,-6.008 -14.52,-6.008 h -9.51 c -4.68,0 -11.77,-2 -15.75,-4.449 l -2.76,-1.711 c -3.98,-2.449 -12.25,-1.18 -15.12,-0.86 -2.88,0.321 -23.92,7.5 -32.67,12.5 -7.26,4.149 -20.75,5.489 -24.53,2.899 -3.79,-2.602 -9.68,-4.84 -13.11,-4.981 -3.41,-0.14 -9.22,2.129 -12.89,5.02 l -2.39,1.902 c -3.67,2.891 -8.69,5.09 -11.16,5.098 -3.58,0.012 -6.29,1.391 -8.26,4.851 -1.98,3.469 -0.88,4.079 -1.37,8.2 -0.34,2.91 -0.55,5.558 2.15,6.23 2.74,0.668 5.07,0.77 6.99,-0.461 1.91,-1.23 5.42,-1.937 7.79,-1.578 2.37,0.367 7.41,2.918 11.2,5.649 l 9.59,6.941 c 3.79,2.738 7.68,8.039 8.64,11.777 0.95,3.75 -0.73,8.114 -3.73,9.692 -3.01,1.59 -9.3,2.89 -13.98,2.89 h -163.56 c -4.68,0 -11.65,-2.179 -15.5,-4.84 l -14.53,-10.019 c -3.85,-2.66 -10.31,-2.922 -14.35,-0.563 l -19.12,11.141 c -4.04,2.352 -11.18,4.281 -15.86,4.281 H 306.273 c -4.675,0 -11.863,1.828 -15.968,4.071 l -2.793,1.531 c -4.106,2.238 -7.461,7.898 -7.461,12.578 v 476.121 c 0,4.668 -0.024,12.328 -0.039,17.008 l -0.09,18.57 c -0.02,4.68 0.492,15.832 -7.68,20.563 l -20.578,12.347 c -4.203,2.051 -20.352,5.11 -24.949,4.262 l -50.992,-9.422 c -4.602,-0.847 -8.907,-5.34 -9.567,-9.969 l -4.89,-34.199 c -0.661,-4.633 -1.383,-12.242 -1.61,-16.922 l -5.965,-215.668 c 0.528,-5.632 0.512,-15.312 2.504,-21.961 1.993,-6.648 8.805,-81.48 8.805,-95.23 0,-13.75 1.664,-21.941 1.664,-26.621 V 247 c 0,-4.68 0,-8.5 -0.004,-8.5 0,0 0.254,-3.82 0.563,-8.488 l 2.699,-40.93 c 0.308,-4.672 2.613,-11.723 5.117,-15.66 l 17.981,-28.363 c 2.503,-3.95 8.273,-8.079 12.82,-9.168 l 36.605,-8.789 c 4.547,-1.09 12.094,-1.993 16.774,-1.993 h 354.929 c 4.68,0 11.77,2 15.758,4.442 l 25.09,15.359 c 3.988,2.442 5.477,7.828 3.316,11.981 l -4.628,8.879 c -2.164,4.152 -7.434,9.089 -11.707,11 l -3.215,1.421 c -4.274,1.911 -9.723,8.707 -6.207,10.239 3.25,1.402 6.144,8.172 11.82,9.961 5.937,1.871 10.793,-0.141 16.875,0.781 6.086,0.918 17.148,-1.57 20.332,-5 0,0 4.539,-6.434 9.938,-12.981 5.394,-6.55 15.019,-13.89 15.019,-13.89 l 21.813,-23.461 c 3.179,-3.43 9.402,-7.469 13.828,-8.988 l 20.371,-6.993 c 4.426,-1.507 11.875,-2.75 16.551,-2.75 H 1824.8 c 4.68,0 12.04,1.481 16.34,3.301 l 7.26,3.051 c 4.31,1.82 6.18,-0.633 13.56,-1.531 4.09,-0.5 9.56,-4.821 14.24,-4.821 h 10.09 c 4.68,0 9.87,3.571 11.54,7.942 l 1.2,3.148 c 1.67,4.371 6.05,10.313 8.26,8.461 3.54,-2.988 7.64,-2.422 10.63,-6.019 l 5.81,-6.993 c 2.99,-3.589 9.26,-6.539 13.94,-6.539 h 88.79 c 4.67,0 10.93,2.95 13.91,6.563 l 4.84,5.887 c 2.98,3.613 8.79,8.32 12.92,10.472 4.12,2.149 10.13,6.68 13.36,10.059 l 14.2,14.879 c 3.24,3.383 9.17,6.922 13.22,7.871 4.04,0.949 10.05,-0.988 13.36,-4.301 l 0.78,-0.777 c 3.31,-3.313 9.83,-6.192 14.51,-6.403 l 3.32,-0.16 c 4.68,-0.219 9.55,0.883 10.84,2.422 1.29,1.539 3.88,3.129 5.76,3.508 1.88,0.383 5.24,-2.5 7.5,-6.41 2.25,-3.91 4.21,-10.93 4.36,-15.598 l 0.07,-2.383 c 0.15,-4.668 2.43,-11.656 5.05,-15.527 l 2.07,-3.063 c 2.63,-3.878 8.61,-7.039 13.28,-7.039 h 43.22 c 4.68,0 11.24,2.672 14.59,5.942 l 5.67,5.558 c 3.35,3.27 6.5,7.571 7.02,9.539 0.52,1.973 -1.8,4.723 -5.15,6.102 -3.35,1.371 -5.33,4.469 -4.38,6.871 0.95,2.399 5.3,3.738 9.69,2.969 4.38,-0.77 9.94,-3.578 12.34,-6.25 2.4,-2.668 6.77,-2.801 9.69,-0.309 2.92,2.489 6.83,8.039 8.68,12.34 l 0.14,0.309 c 1.85,4.3 5.83,9.64 8.84,11.879 3,2.23 8.84,3.011 12.97,1.722 4.12,-1.293 7.91,-6.16 8.41,-10.801 l 0.67,-6.21 c 0.5,-4.649 2.84,-11.77 5.19,-15.809 l 9.59,-16.5 c 2.36,-4.039 7.65,-6.813 11.77,-6.121 4.12,0.672 8.82,2.148 10.45,3.281 1.63,1.117 5.45,2.051 8.5,2.051 3.04,0 7.98,-1.473 10.98,-3.281 3,-1.809 8.92,-3.282 13.17,-3.282 4.23,0 9.77,0.481 12.3,1.071 2.52,0.59 8.42,0.968 13.09,0.84 l 54.57,-1.418 c 4.66,-0.133 12.32,-0.243 17,-0.25 l 133.94,-0.223 c 4.68,-0.008 10.97,2.359 13.97,5.269 3,2.903 11.1,16.153 15.14,20.461 4.03,4.313 4.39,7.821 8.65,10.911 4.26,3.082 7.57,8.628 8.29,13.25 l 0.51,3.199 c 0.72,4.621 -0.16,8.601 -1.35,10.59 -0.98,1.621 -1.18,3.882 0.62,5.941 1.81,2.059 6.52,5.789 10.47,8.289 l 6.88,4.352 c 3.95,2.5 10.35,4.058 14.22,3.449 3.86,-0.61 10.46,-2.781 14.65,-4.852 l 9.44,-4.668 c 4.2,-2.07 11,-2.922 15.13,-1.89 4.12,1.039 8.48,4.621 9.68,7.968 1.2,3.352 4.16,6.161 6.57,6.25 2.4,0.09 4.79,-1.25 5.31,-2.968 0.52,-1.719 3.88,-4.95 7.5,-7.18 3.61,-2.238 6.63,-6.391 6.72,-9.219 0.08,-2.832 -3.26,-6.902 -7.43,-9.031 l -0.15,-0.07 c -4.17,-2.129 -9.65,-4.559 -12.17,-8.508 l -3.02,-7.262 c -2.52,-3.941 -7.54,-7.5 -9.28,-11.828 l -0.2,-0.492 c -1.75,-4.34 -4.65,-13.488 -8.3,-16.41 l -0.78,-0.621 c -3.65,-2.918 -6.36,-7.418 -6.02,-10 0.34,-2.579 2.18,-4.75 4.07,-4.821 1.9,-0.066 6.6,2.051 10.44,4.711 l 4.44,3.082 c 3.85,2.66 8.4,8.008 10.12,11.867 1.71,3.872 4.88,7.391 7.03,7.813 2.14,0.43 4.74,-0.691 5.78,-2.5 1.03,-1.801 1.56,-7.09 1.19,-11.75 l -0.2,-2.422 c -0.37,-4.66 3.14,-8.719 7.81,-9 l 3.34,-0.207 c 4.66,-0.293 10.01,2.977 11.88,7.27 l 1.64,3.789 c 1.88,4.289 -0.17,9.16 -4.54,10.839 l -2.87,1.09 c -4.37,1.68 -9.06,6.571 -10.44,10.86 -1.38,4.3 0.99,9.39 5.25,11.3 l 6.06,2.719 c 4.27,1.91 10.92,1.34 14.78,-1.301 l 9.38,-6.367 c 3.87,-2.64 6.61,-7.461 6.09,-10.722 -0.52,-3.258 1.92,-8.489 5.4,-11.61 l 2.33,-2.09 c 3.48,-3.129 10.16,-5.8 14.83,-5.961 l 2.04,-0.078 c 4.67,-0.148 10.93,1.758 13.92,4.258 2.97,2.5 8.19,7.172 11.59,10.383 l 7.46,7.07 c 3.4,3.207 9.39,3.75 13.3,1.18 l 10.74,-7.02 c 3.92,-2.57 8.29,-8.3 9.7,-12.761 l 2.07,-6.469 c 1.42,-4.461 5.6,-7.691 9.29,-7.18 3.69,0.489 7.5,4.641 8.47,9.219 l 1.17,5.551 c 0.96,4.578 3.23,11.129 5.04,14.57 1.8,3.438 7.11,6.277 11.78,6.309 l 25.49,0.191 c 4.68,0.027 11.46,-2.371 15.07,-5.351 l 6.56,-5.43 c 3.62,-2.969 9.38,-5.692 12.82,-6.02 3.43,-0.34 9.15,1.871 12.69,4.918 l 5.23,4.524 c 3.55,3.047 7.31,1.418 12.71,1.316 5.4,-0.098 9.58,0.41 17.5,0.832 7.92,0.418 10.96,1.031 14.43,-0.949 3.48,-1.973 10.89,-4.129 15.52,-3.461 l 17.56,2.539 c 4.63,0.66 10.04,4.512 12.01,8.551 1.97,4.039 6.39,9.961 9.8,13.16 l 2.59,2.43 c 3.41,3.199 10.03,5.89 14.71,5.992 l 12.68,0.277 c 4.67,0.09 10.19,-1.301 12.25,-3.109 2.06,-1.809 0.69,-5.57 -3.06,-8.36 l -1.06,-0.781 c -3.75,-2.789 -5.75,-8.75 -4.44,-13.238 l 0.25,-0.859 c 1.31,-4.493 5.4,-8.801 9.09,-9.571 3.7,-0.769 10.49,-2.031 15.11,-2.812 l 3.85,-0.641 c 4.62,-0.769 10.41,-4.648 12.88,-8.617 l 3.03,-4.879 c 2.47,-3.973 8.32,-7.223 13,-7.223 h 160.75 c 4.67,0 11.23,2.68 14.57,5.95 l 4.03,3.98 c 3.34,3.27 5.78,8.422 5.44,11.422 -0.34,3.008 -1.54,7.371 -2.66,9.687 -1.11,2.332 -1.32,7.872 -0.46,12.352 0.85,4.469 1.05,8.891 4.68,10.41 3.75,1.559 6.03,2.762 7.82,-1.57 l 1.75,-5.981 c 1.79,-4.328 2.97,-11.679 2.63,-16.347 l -1.17,-16.391 c -0.34,-4.66 0.56,-9.621 2.01,-10.992 1.44,-1.391 6.12,-0.957 10.39,0.941 l 1.82,0.801 c 4.26,1.91 11.44,3.899 15.94,4.43 4.52,0.539 10.15,-1.211 12.53,-3.871 2.39,-2.641 8.17,-4.821 12.85,-4.821 h 0.33 c 4.67,0 10.52,3.25 13,7.223 l 1.86,3 c 2.47,3.977 4.5,10.109 4.51,13.629 0,3.527 -0.97,7.949 -2.19,9.848 -1.21,1.89 -1.22,6.953 -0.01,11.25 1.2,4.3 2.19,10.621 2.21,14.062 0.02,3.438 -0.68,7.789 -1.56,9.688 -0.88,1.89 -1.31,6.531 -0.97,10.312 0.34,3.777 1.08,10.668 1.63,15.32 l 0.1,0.829 c 0.56,4.652 -1.16,11.601 -3.81,15.46 l -3.73,5.442 c -2.64,3.859 -3.83,10.109 -2.62,13.887 1.2,3.781 5.81,8.101 10.24,9.613 l 1.39,0.469 c 4.43,1.5 11.87,2.441 16.53,2.089 l 11.8,-0.898 c 4.65,-0.352 11.96,-2.223 16.23,-4.141 l 0.22,-0.113 c 4.27,-1.918 10.64,-0.976 14.15,2.113 l 3.16,2.758 c 3.51,3.09 6.39,9.442 6.39,14.11 v 1.722 c 0,4.68 -2.69,11.231 -5.97,14.551 l -7.21,7.289 c -3.29,3.32 -8.54,6.199 -11.64,6.391 -3.12,0.187 -5.67,2.449 -5.67,5.008 0.01,2.55 3.54,6.16 7.84,7.98 l 1.79,0.781 c 4.3,1.821 7.61,5.938 7.35,9.141 -0.28,3.199 -1.44,8.937 -2.59,12.758 -1.15,3.82 -5.52,7.449 -9.7,8.082 -4.17,0.609 -8.95,4.687 -10.62,9.058 l -3.93,10.27 c -1.67,4.371 -5.6,6.332 -10.23,12.469 -0.96,1.273 -2.56,4.281 -5.27,8.031 -1.21,1.68 -2.8,7.91 -1.76,11.449 1.15,3.949 0.95,10.422 1.3,14.59 0.36,4.172 -0.3,9.621 -1.45,12.109 -1.15,2.492 -0.86,6.703 0.65,9.371 1.51,2.672 3.47,8.602 4.35,13.192 l 0.99,5.269 c 0.88,4.59 2.28,5.371 2.91,9.121 0.53,3.25 1.4,3.539 3.35,4.688 1.96,1.16 7.22,0.601 10.59,-2.641 l 9.96,-7.258 c 3.37,-3.242 7.5,-6.621 9.19,-7.5 1.69,-0.89 5.49,1.348 8.46,4.969 l 1.92,2.352 c 2.97,3.621 5.39,10.41 5.39,15.078 v 129.949 c 0,4.672 -1.98,11.774 -4.41,15.781 l -7.44,12.262 c -2.43,4.008 -4.28,11.109 -4.13,15.77 l 0.52,15.949 c 0.15,4.672 2.79,11.39 5.86,14.91" /><path
         id="path88"
         style="fill:rgb(218, 79, 111);fill-opacity:1;fill-rule:nonzero;stroke:none"
         d="m 3540.22,218.129 -1.28,1.18 c -3.47,3.14 -9.37,3.421 -13.12,0.632 l -14.14,-10.519 c -3.75,-2.793 -7.32,-8.203 -7.95,-12.024 -0.62,-3.816 0.83,-10.066 3.22,-13.878 2.41,-3.821 4.81,-10.661 5.34,-15.192 0.53,-4.519 -0.34,-9.758 -1.94,-11.617 -1.6,-1.871 -3.12,-5.422 -3.4,-7.91 -0.26,-2.492 0.9,-7.43 2.6,-10.981 1.68,-3.55 6.62,-6.679 10.98,-6.949 4.35,-0.262 10.46,2.379 13.57,5.867 l 1.92,2.16 c 3.11,3.493 5.87,8.672 6.15,11.512 0.26,2.84 2.81,6.371 3.29,9.07 0.48,2.711 0.63,10.829 0.63,13.329 0,0 0.29,5.871 0.16,9.222 -0.13,3.348 1.1,8.379 0.93,13.051 l -0.33,8.848 c -0.18,4.66 -3.16,11.058 -6.63,14.199" /><path
         id="path90"
         style="fill:rgb(218, 79, 111);fill-opacity:1;fill-rule:nonzero;stroke:none"
         d="m 3525.37,404.738 c -1.41,0.153 -4.5,-1.258 -6.85,-3.148 -2.36,-1.879 -6.43,-4.789 -9.05,-6.469 -2.62,-1.68 -2.54,-5.883 0.19,-9.34 2.72,-3.461 8.68,-6.242 13.23,-6.191 0.55,0.012 1.08,0.18 1.63,0.262 1.63,-0.032 3.19,0.027 4.44,0.328 3.6,0.84 6.44,4.461 6.32,8.05 -0.11,3.61 -1.81,8.719 -3.78,11.391 -1.95,2.66 -4.71,4.957 -6.13,5.117" /><path
         id="path92"
         style="fill:rgb(218, 79, 111);fill-opacity:1;fill-rule:nonzero;stroke:none"
         d="m 3521.91,2019.43 c -1.85,-3.7 -4.88,-6.3 -6.73,-5.77 -1.86,0.52 -2.45,4.67 -1.31,9.21 l 0.69,2.75 c 1.13,4.54 4.01,6.52 6.4,4.4 2.37,-2.11 2.81,-6.88 0.95,-10.59 z m 9.07,-37.07 10.47,7.89 c 3.74,2.82 6.79,8.95 6.79,13.63 v 5.49 c 0,4.68 -1.15,9.98 -2.56,11.78 -1.4,1.81 -1.4,5.89 0,9.06 1.41,3.18 2.55,9.61 2.53,14.29 l -0.37,122.99 c -0.02,4.68 -0.64,11.8 -1.39,15.83 -0.75,4.03 -2.18,14.17 -4.57,16.27 -4.38,3.85 -10.84,1.66 -17.83,8.3 -1.49,1.42 -10.4,5.4 -15.08,5.4 h -56.45 c -4.68,0 -11.87,-1.84 -15.97,-4.08 l -6.31,-3.45 c -4.1,-2.24 -11.28,-4.05 -15.96,-4.02 l -5.51,0.03 c -4.68,0.03 -11.75,2.09 -15.7,4.57 l -3.86,2.43 c -3.96,2.48 -11.03,4.52 -15.7,4.52 h -64.94 c -4.67,0 -11.82,-1.9 -15.88,-4.23 l -1.8,-1.03 c -4.06,-2.32 -10.24,-6.78 -13.71,-9.9 l -3.91,-3.51 c -3.48,-3.12 -10.14,-5.85 -14.82,-6.08 l -9.77,-0.47 c -4.68,-0.22 -12,1.14 -16.28,3.03 l -6.93,3.04 c -4.28,1.89 -11.61,3.43 -16.29,3.43 h -79.39 c -4.68,0 -12.2,-1 -16.71,-2.22 l -45.17,-12.25 c -4.51,-1.22 -11.16,-2.13 -14.78,-2.01 -3.63,0.11 -9.96,-1.6 -14.08,-3.82 l -13.47,-7.23 c -4.12,-2.22 -10.69,-1.92 -14.58,0.66 l -0.63,0.41 c -3.9,2.59 -10.86,5.38 -15.46,6.22 l -13.46,2.44 c -4.6,0.84 -10.37,4.8 -12.81,8.78 l -6,9.83 c -2.44,4 -1.86,8.81 -4.36,9.9 -2.5,1.1 -10.94,2.19 -12.34,3.28 -1.41,1.1 -6.85,1.73 -11.53,1.73 h -81.95 c -4.68,0 -10.96,-2.94 -13.94,-6.54 l -10.35,-12.41 c -2.98,-3.59 -8.49,-6.53 -12.23,-6.53 -3.74,0 -8.81,3.25 -11.26,7.23 l -6.79,11.01 c -2.45,3.98 -8.29,7.24 -12.97,7.24 h -2.95 c -4.68,0 -11.77,-2 -15.77,-4.43 0,0 -2.29,-2.61 -5.11,-4.48 -2.81,-1.88 -6.31,-0.12 -10.99,-0.09 l -4.65,0.03 c -4.68,0.03 -10.41,2.06 -12.75,4.51 -2.33,2.45 -8.07,4.46 -12.75,4.46 H 175.172 c -4.68,0 -10.863,-3.02 -13.746,-6.7 l -12.024,-15.36 c -2.879,-3.68 -4.882,-10.5 -4.441,-15.16 l 1.742,-18.48 c 0.438,-4.66 -0.32,-12.13 -1.687,-16.61 l -4.196,-13.72 c -1.367,-4.48 -2.605,-11.96 -2.754,-16.64 l -3.632,-115.5 c -0.149,-4.67 0.562,-12.23 1.578,-16.8 l 2.976,-13.4 c 1.016,-4.56 1.41,-12.1 0.883,-16.74 l -2.242,-19.78 c -0.527,-4.65 -0.332,-12.23 0.433,-16.84 l 8.876,-53.22 c 0.765,-4.61 1.476,-12.22 1.574,-16.89 l 2.148,-105.49 c 0.098,-4.68 1.961,-11.9 4.145,-16.03 l 7.89,-14.96 c 2.184,-4.13 4.477,-11.31 5.098,-15.95 l 2.953,-22.09 c 0.621,-4.64 0.484,-12.2 -0.308,-16.81 l -0.876,-5.12 c -0.792,-4.61 -1.566,-12.21 -1.718,-16.88 l -0.063,-1.75 c -0.152,-4.67 2.125,-11.47 5.071,-15.11 l 18.671,-23.03 c 2.946,-3.64 9.18,-6.65 13.86,-6.7 l 42.359,-0.44 c 4.68,-0.05 10.926,2.87 13.879,6.5 l 16.758,20.56 c 2.953,3.63 4.949,10.11 4.433,14.41 -0.515,4.3 -0.308,11.59 0.458,16.2 l 0.96,5.72 c 0.766,4.61 0.719,12.16 -0.097,16.76 l -2.59,14.5 c -0.82,4.6 -1.492,12.2 -1.492,16.88 v 378.83 c 0,4.67 3.219,10.56 7.16,13.08 l 16.875,10.79 c 3.941,2.52 10.992,4.58 15.672,4.58 H 776.07 c 4.676,0 12.313,-0.36 16.973,-0.81 l 4.324,-0.41 c 4.66,-0.45 12.274,-0.4 16.926,0.09 l 2.254,0.23 c 4.652,0.5 12.109,1.75 16.578,2.78 4.469,1.03 11.949,1.87 16.625,1.87 h 9.242 c 4.68,0 12.317,-0.39 16.969,-0.86 l 19.754,-2.02 c 4.652,-0.48 12.289,-0.87 16.965,-0.87 h 740.45 c 4.68,0 11.52,2.37 15.2,5.26 l 1.23,0.96 c 3.68,2.89 8.65,5.25 11.07,5.25 2.4,0 7.5,-2.21 11.32,-4.9 l 2.37,-1.67 c 3.81,-2.69 9.24,-4.9 12.06,-4.9 2.8,0 7.12,2.61 9.59,5.8 2.47,3.19 8.06,4.43 12.42,2.75 l 14.36,-5.5 c 4.37,-1.68 11.77,-3.05 16.45,-3.05 h 201.03 c 4.68,0 11.83,1.35 15.88,2.99 4.06,1.64 10.03,2.14 13.27,1.11 3.25,-1.04 9.73,-1.76 14.4,-1.62 l 25.91,0.81 c 4.67,0.15 17.61,3.18 20.78,5.25 3.17,2.06 3.89,5.25 2.66,6.87 -2.29,3.02 -7.43,1.9 -11.25,4.07 -3.84,2.16 -10.12,6.13 -14.71,5.22 l -6.38,-1.26 c -4.59,-0.9 -11.41,0.65 -15.15,3.45 0,0 -2.51,2.47 -7.51,3.21 -5,0.74 -3.57,7.58 -4.46,11.27 -0.88,3.68 1.9,7.96 6.17,9.51 4.28,1.56 11.6,2.6 16.26,2.33 l 57.57,-3.31 c 4.67,-0.27 11.02,0.29 14.12,1.25 3.1,0.96 9.2,0.36 13.56,-1.32 l 4.25,-1.64 c 4.36,-1.69 8.1,-6.39 8.33,-10.45 0.22,-4.05 -1.13,-10.88 -2.98,-15.17 l -1.02,-2.36 c -1.85,-4.29 -1.39,-9.37 1.05,-11.29 2.43,-1.92 7.73,-5.41 11.77,-7.76 l 3.26,-1.9 c 4.04,-2.35 9.28,-1.56 11.65,1.76 2.35,3.31 8.11,6.15 12.78,6.31 l 5,0.17 c 4.67,0.15 11.82,-1.47 15.87,-3.61 4.04,-2.14 11.19,-3.89 15.87,-3.89 h 2.84 c 4.68,0 11.84,1.89 15.9,4.2 l 6.12,3.47 c 4.06,2.31 8.23,7.46 9.27,11.45 1.03,3.97 4.19,8.98 7.01,11.12 2.82,2.13 6.5,6.05 8.18,8.71 1.67,2.65 6.18,4.88 10.01,4.96 3.84,0.08 9.88,-2.36 13.43,-5.41 l 9.87,-8.48 c 3.56,-3.05 9.78,-5.9 13.83,-6.35 4.06,-0.45 9.93,2.04 13.05,5.53 l 0.19,0.2 c 3.12,3.48 7.6,6.46 9.96,6.6 2.35,0.15 7.84,-1.15 12.18,-2.89 l 11.02,-4.4 c 4.34,-1.75 8.56,-6.72 9.37,-11.07 0.81,-4.35 3.72,-10.1 6.44,-12.77 2.72,-2.68 8.79,-4.87 13.47,-4.87 h 134.75 c 4.68,0 10.37,3.16 12.67,7.01 2.28,3.85 5.28,5.25 5.14,7.47 -0.16,2.21 -3.12,11.06 -5.07,15.31 l -1.77,3.85 c -1.95,4.25 -1.61,9.6 0.74,11.88 2.35,2.29 8.12,4.15 12.79,4.15 h 41.44 c 4.68,0 11.16,-2.35 14.4,-5.22 3.26,-2.87 8.02,-4.81 10.61,-4.29 2.58,0.51 6.86,2.99 9.51,5.5 2.66,2.5 8.66,4.58 13.34,4.62 l 15.69,0.13 c 4.68,0.04 9.59,-1.01 10.92,-2.34 1.33,-1.33 3.44,-3.08 4.7,-3.89 1.25,-0.81 2.52,-3.83 2.81,-6.7 0.3,-2.88 2.01,-8.76 3.81,-13.08 l 0.97,-2.33 c 1.79,-4.32 5.87,-7.88 9.03,-7.92 3.17,-0.03 6.86,1.3 8.18,2.97 1.32,1.67 6.23,2.98 10.91,2.93 l 2.56,-0.03 c 4.68,-0.06 11.46,-2.54 15.06,-5.53 l 2.45,-2.02 c 3.6,-2.98 9.99,-7.01 14.2,-8.94 4.2,-1.94 11.47,-3.53 16.14,-3.53 h 97.45 c 4.68,0 10.38,3.28 12.68,7.3 2.28,4.01 5.66,7.29 7.5,7.29 1.83,0 4.64,-3.28 6.25,-7.29 1.6,-4.02 6.74,-7.3 11.42,-7.3 h 15.48 c 4.68,0 10.95,2.95 13.92,6.56 l 1.26,1.52 c 2.98,3.61 5.98,9.65 6.66,13.43 0.68,3.78 4.43,9 8.33,11.59 l 0.84,0.57 c 3.9,2.59 8.94,4.3 11.19,3.8 2.27,-0.51 4.81,-2.38 5.63,-4.17 0.84,-1.78 3.2,-3.43 5.26,-3.66 2.06,-0.23 4.4,2.02 5.21,5 0.81,2.98 2.58,6.63 3.96,8.12 1.38,1.49 4.37,2.71 6.66,2.71 2.29,0 5.96,-1.87 8.13,-4.17 2.18,-2.29 7.74,-4.79 12.35,-5.56 l 0.72,-0.12 c 4.61,-0.77 12.21,-1.14 16.88,-0.82 l 7.6,0.51 c 4.67,0.32 10.24,-2.83 12.38,-6.99 l 0.14,-0.29 c 2.14,-4.16 7.36,-8.97 11.6,-10.68 4.24,-1.72 9.58,-0.98 11.88,1.66 2.28,2.64 6.25,1.58 8.8,-2.34 l 6.19,-9.54 c 2.55,-3.92 6.51,-7.13 8.8,-7.13 2.28,0 6.01,3.34 8.3,7.42 l 2.69,4.81 c 2.28,4.08 7.62,9.03 11.86,10.99 l 13.32,6.16 c 4.24,1.96 10.6,6.09 14.11,9.17 l 1.1,0.96 c 3.51,3.09 9.59,5.79 13.5,6.01 3.91,0.22 10.48,-1.4 14.6,-3.6 l 0.55,-0.3 c 4.12,-2.2 9.36,-3.44 11.65,-2.74 2.28,0.7 6.33,1.24 8.98,1.21 2.66,-0.03 7.37,-0.37 10.46,-0.73 3.1,-0.37 7.84,-3.81 10.54,-7.63 l 1.72,-2.45 c 2.69,-3.82 7.48,-9.78 10.63,-13.23 l 8.93,-9.77 c 3.15,-3.45 9.56,-6.28 14.24,-6.28 h 168.26 c 4.68,0 9.53,3.38 10.78,7.51 1.25,4.13 1.38,10.36 0.26,13.84 -1.09,3.49 0.3,8.7 3.09,11.57 2.8,2.87 8.5,3.48 12.67,1.36 l 21.59,-11.03 c 4.16,-2.13 9.53,-6.53 11.93,-9.77 2.4,-3.25 4.56,-7.71 4.81,-9.91 0.24,-2.2 -1.06,-5.64 -2.88,-7.64 -1.81,-2 -3.31,-7.46 -3.31,-12.14 v -19.18 c 0,-4.68 0.78,-10.8 1.75,-13.6 0.96,-2.8 1.74,-8.92 1.74,-13.6 v -0.42 c 0,-4.67 -0.78,-12.12 -1.74,-16.54 -0.97,-4.43 -1.75,-11.87 -1.75,-16.55 v -84 c 0,-4.68 1.74,-11.92 3.86,-16.09 l 1.34,-2.62 c 2.12,-4.16 3.86,-11.4 3.87,-16.08 l 0.16,-139.35 c 0,-4.68 -1.61,-11.97 -3.6,-16.2 l -2.01,-4.32 c -2,-4.22 -3.62,-11.52 -3.62,-16.19 v -58.81 c 0,-4.68 2.28,-11.59 5.06,-15.34 l 1.45,-1.97 c 2.78,-3.76 5.06,-8.52 5.06,-10.58 0,-2.06 0.73,-5.73 1.63,-8.13 0.91,-2.4 3.44,-4.73 5.65,-5.18 2.21,-0.44 5.86,-2.34 8.13,-4.22 2.26,-1.88 6.79,-3.78 10.07,-4.24 3.29,-0.45 8.45,-3.73 11.49,-7.3 l 12.97,-9.36 c 3.03,-3.57 8.61,-5.42 12.39,-4.13 3.78,1.29 1.52,7.53 2.62,12.08 l 0.08,0.33 c 1.09,4.55 1.41,12.05 0.72,16.68 l -0.59,3.81 c -0.69,4.63 -2.11,11.29 -3.14,14.81 -1.04,3.53 1.15,5.51 1.4,11.77 0.14,3.45 2.75,7.72 2.08,10.63 -0.66,2.91 -3.12,7.31 -5.47,9.8 -2.35,2.49 -3.84,7.2 -3.32,10.46 0.51,3.26 3.04,9.13 5.61,13.04 l 2.83,4.28 c 2.57,3.91 7.89,9.17 11.83,11.71 l 1.64,1.05 c 3.93,2.54 8.2,7.98 9.49,12.11 1.29,4.12 -0.14,8.28 -0.25,10.42 -0.22,3.89 -2.84,4.84 -3.13,7.19 -0.29,2.35 2.3,6.85 5.73,10.02 l 0.41,0.36 c 3.44,3.17 6.26,7.94 6.26,10.6 0,2.67 -0.8,5.9 -1.77,7.19 -0.98,1.29 -1.71,4.17 -1.62,6.4 0.08,2.24 1.8,7.51 3.82,11.74 l 0.59,1.22 c 2.02,4.22 3.67,11.5 3.67,16.18 v 50.17 c 0,4.68 -2.2,11.63 -4.89,15.46 l -12.21,17.34 c -2.68,3.83 -5.06,10.77 -5.26,15.45 l -0.51,11.76 c -0.2,4.68 2.76,10.68 6.6,13.37 l 12.21,5.38 c 3.84,2.69 4.06,9.81 4.06,14.49 v 8.32 c 0,4.68 -3.07,10.78 -6.83,13.57 l -11.25,10.18 c -3.76,2.79 -5.98,1.48 -5.98,5.37 0,3.9 3.06,5.12 6.8,7.93" /></g></g></svg>